<svg width="40" height="40" viewBox="0 0 40 40" fill="none" xmlns="http://www.w3.org/2000/svg">
<path d="M40.0005 19.8613H32.3936C32.3566 16.5441 31.0178 13.5419 28.8633 11.3366L34.2423 5.95969C37.7732 9.53901 39.9629 14.442 40.0005 19.8613Z" fill="#C2DAF2"/>
<path d="M11.3358 11.1377L5.95703 5.75812C9.53768 2.2291 14.4418 0.0370331 19.8587 -3.05176e-05V7.60868C16.5422 7.64574 13.5398 8.98269 11.3358 11.1377Z" fill="#3E454D"/>
<path d="M5.75815 34.043C2.22728 30.4636 0.0378582 25.558 0 20.1413H7.60712C7.64418 23.4586 8.98272 26.4607 11.1372 28.6634L5.75815 34.043Z" fill="#667380"/>
<path d="M28.6635 11.1377C26.4595 8.98269 23.4571 7.64574 20.1406 7.60868V-3.05176e-05C25.5575 0.0370331 30.4619 2.2291 34.0423 5.75812L28.6635 11.1377Z" fill="#C2DAF2"/>
<path d="M7.60712 19.8613H0C0.0378582 14.442 2.22728 9.53901 5.75815 5.95969L11.1372 11.3366C8.98272 13.5419 7.64418 16.5441 7.60712 19.8613Z" fill="#525C66"/>
<path d="M19.8587 40C14.4418 39.9629 9.53768 37.7735 5.95703 34.2418L11.3358 28.8649C13.5398 31.0173 16.5422 32.3569 19.8587 32.3939V40Z" fill="#7A8A99"/>
<path d="M34.2423 34.043L28.8633 28.6634C31.0178 26.4607 32.3566 23.4586 32.3936 20.1413H40.0005C39.9629 25.558 37.7732 30.4636 34.2423 34.043Z" fill="#C2DAF2"/>
<path d="M20.1406 40V32.3939C23.4571 32.3569 26.4595 31.0173 28.6635 28.8649L34.0423 34.2418C30.4619 37.7735 25.5575 39.9629 20.1406 40Z" fill="#C2DAF2"/>
</svg>
