<svg width="16" height="16" viewBox="0 0 16 16" fill="none" xmlns="http://www.w3.org/2000/svg">
<path fill-rule="evenodd" clip-rule="evenodd" d="M10.82 8L15.4 3.42C15.78 3.06 16 2.56 16 2C16 0.9 15.1 0 14 0C13.44 0 12.94 0.22 12.58 0.58L8 5.18L3.42 0.58C3.06 0.22 2.56 0 2 0C0.9 0 0 0.9 0 2C0 2.56 0.22 3.06 0.58 3.42L5.18 8L0.6 12.58C0.22 12.94 0 13.44 0 14C0 15.1 0.9 16 2 16C2.56 16 3.06 15.78 3.42 15.42L8 10.82L12.58 15.4C12.94 15.78 13.44 16 14 16C15.1 16 16 15.1 16 14C16 13.44 15.78 12.94 15.42 12.58L10.82 8Z" fill="#3D3D3D"/>
</svg>
