<svg width="217" height="217" viewBox="0 0 217 217" fill="none" xmlns="http://www.w3.org/2000/svg">
<path d="M139.024 177.921C155.25 170.729 168.467 158.113 176.406 142.238C184.345 126.363 186.51 108.22 182.53 90.9231C178.55 73.626 168.672 58.2538 154.594 47.4453C140.515 36.6368 123.113 31.0661 105.375 31.6896L108.059 108.059L139.024 177.921Z" stroke="#C2DAF2" stroke-width="0.545833"/>
<path d="M106.002 31.6709C88.2598 32.1488 71.2368 38.788 57.8556 50.4489C44.4744 62.1098 35.5697 78.065 32.67 95.5757C29.7703 113.086 33.0565 131.06 41.9645 146.412C50.8725 161.764 64.8467 173.536 81.4883 179.708L108.06 108.06L106.002 31.6709Z" stroke="#C2DAF2" stroke-width="0.545833"/>
<path d="M81.5246 179.722C100.188 186.632 120.811 185.989 139.007 177.929L108.06 108.06L81.5246 179.722Z" stroke="#C2DAF2" stroke-width="0.545833"/>
</svg>
