<svg width="444" height="24" viewBox="0 0 444 24" fill="none" xmlns="http://www.w3.org/2000/svg">
<path d="M9.76 7.6V17.4H19.64V9.92H29.2V24H4.4C3.92 24 3.4 23.92 2.92 23.76C2.4 23.6 1.96 23.4 1.56 23.08C1.16 22.76 0.8 22.4 0.56 21.92C0.32 21.48 0.2 20.96 0.2 20.4V4.56C0.2 4 0.32 3.52 0.56 3.04C0.8 2.6 1.16 2.24 1.56 1.92C1.96 1.6 2.4 1.36 2.92 1.2C3.4 1.04 3.92 0.959999 4.4 0.959999H29.2V7.6H9.76ZM10.24 19C10.04 19 9.96 19.12 9.96 19.32C9.96 19.56 10.04 19.64 10.24 19.64C10.4 19.64 10.48 19.56 10.48 19.32C10.48 19.12 10.4 19 10.24 19ZM9.56 20.28C9.4 20.28 9.32 20.4 9.32 20.6C9.32 20.84 9.4 20.96 9.56 20.96C9.72 20.96 9.84 20.84 9.84 20.6C9.84 20.4 9.72 20.28 9.56 20.28ZM12.16 21.92H11.84V22.24H12.16V21.92ZM25.56 16.28C25.44 16.28 25.4 16.32 25.4 16.44C25.4 16.6 25.44 16.64 25.56 16.6C25.64 16.56 25.72 16.52 25.72 16.44C25.72 16.36 25.64 16.32 25.56 16.28ZM24.28 16.6C24.12 16.6 24.04 16.72 24.04 16.92C24.04 17.16 24.12 17.24 24.28 17.24C24.44 17.24 24.52 17.16 24.52 16.92C24.52 16.72 24.44 16.6 24.28 16.6ZM26.2 20.16C26.04 19.76 25.96 19.64 25.96 19.84C25.96 20.08 26.04 20.16 26.2 20.16ZM24.92 19.52H24.6V19.84L24.92 19.52ZM3.52 10.4H3.2L3.52 10.72V10.4ZM6.12 11.04H5.76V11.4H6.12V11.04ZM2.2 12.04C2.04 12.04 1.96 12.16 1.96 12.36C1.96 12.6 2.04 12.68 2.2 12.68C2.36 12.68 2.48 12.6 2.48 12.36C2.48 12.16 2.36 12.04 2.2 12.04ZM3.52 13.96C3.52 13.88 3.48 13.84 3.32 13.84C3.16 13.84 3.12 13.92 3.16 14C3.2 14.12 3.24 14.16 3.32 14.16C3.4 14.16 3.44 14.12 3.52 13.96ZM2.2 17.52H1.88L2.2 17.88V17.52ZM20.52 4.96C20.32 4.96 20.24 5.08 20.24 5.32C20.24 5.56 20.32 5.64 20.52 5.64C20.68 5.64 20.76 5.56 20.76 5.32C20.76 5.08 20.68 4.96 20.52 4.96ZM22.44 4.64C22.28 4.64 22.2 4.76 22.2 4.96C22.2 5.2 22.28 5.32 22.44 5.32C22.6 5.32 22.72 5.2 22.72 4.96C22.72 4.76 22.6 4.64 22.44 4.64ZM18.08 3.28C17.92 3.28 17.84 3.4 17.84 3.6C17.84 3.84 17.92 3.92 18.08 3.92C18.24 3.92 18.36 3.84 18.36 3.6C18.36 3.4 18.24 3.28 18.08 3.28ZM27.32 4.64C27.16 4.64 27.08 4.76 27.08 4.96C27.08 5.2 27.16 5.32 27.32 5.32C27.48 5.32 27.56 5.2 27.56 4.96C27.56 4.76 27.48 4.64 27.32 4.64ZM27.32 3.04C27.16 3.04 27.08 3.16 27.08 3.36C27.08 3.6 27.16 3.68 27.32 3.68C27.48 3.68 27.56 3.6 27.56 3.36C27.56 3.16 27.48 3.04 27.32 3.04ZM23.76 4.32C23.76 4.24 23.72 4.2 23.56 4.2C23.4 4.2 23.36 4.28 23.4 4.36C23.44 4.48 23.48 4.52 23.56 4.52C23.64 4.52 23.68 4.48 23.76 4.32ZM8.36 4.92C8.2 4.92 8.12 5.04 8.12 5.24C8.12 5.48 8.2 5.56 8.36 5.56C8.52 5.56 8.64 5.48 8.64 5.24C8.64 5.04 8.52 4.92 8.36 4.92ZM5.52 12.04C5.36 12.04 5.28 12.16 5.28 12.36C5.28 12.6 5.36 12.68 5.52 12.68C5.68 12.68 5.8 12.6 5.8 12.36C5.8 12.16 5.68 12.04 5.52 12.04ZM3.92 5.88C3.76 5.88 3.68 6 3.68 6.2C3.68 6.44 3.76 6.52 3.92 6.52C4.08 6.52 4.16 6.44 4.16 6.2C4.16 6 4.08 5.88 3.92 5.88ZM2.96 8.48C2.84 8.52 2.8 8.56 2.8 8.64C2.8 8.72 2.84 8.8 2.96 8.8C3.04 8.84 3.12 8.8 3.12 8.64C3.12 8.52 3.04 8.48 2.96 8.48ZM3.28 4.24C3.16 4.28 3.12 4.36 3.12 4.44C3.12 4.52 3.16 4.56 3.28 4.6C3.36 4.64 3.44 4.6 3.44 4.44C3.44 4.32 3.36 4.24 3.28 4.24ZM7.48 11.08V11.4H7.8L7.48 11.08ZM24.36 11.4C24.36 11.24 24.32 11.08 24.28 11C24.2 10.92 24.04 10.88 23.8 10.88C23.44 10.88 23.28 11.08 23.28 11.4C23.28 11.76 23.44 11.92 23.8 11.92C24.04 11.92 24.2 11.88 24.28 11.8C24.32 11.72 24.36 11.6 24.36 11.4ZM5.44 20.2C5.44 19.8 5.24 19.56 4.88 19.56C4.64 19.56 4.48 19.64 4.4 19.72C4.32 19.84 4.32 20 4.32 20.2C4.32 20.44 4.32 20.6 4.4 20.72C4.48 20.84 4.64 20.88 4.88 20.88C5.24 20.88 5.44 20.68 5.44 20.2ZM26.84 15.6C27 15.6 27.12 15.52 27.12 15.28C27.12 15.08 27 14.96 26.84 14.96C26.68 14.96 26.6 15.08 26.6 15.28C26.6 15.52 26.68 15.6 26.84 15.6ZM22 14.64C22.16 14.64 22.24 14.56 22.24 14.32C22.24 14.12 22.16 14 22 14C21.84 14 21.76 14.12 21.76 14.32C21.76 14.56 21.84 14.64 22 14.64ZM21.04 12.04C21.12 12.08 21.2 12.04 21.2 11.88C21.2 11.76 21.12 11.72 21.04 11.72C20.92 11.76 20.88 11.8 20.88 11.88C20.88 11.96 20.92 12.04 21.04 12.04ZM21.36 16.28C21.44 16.28 21.52 16.24 21.52 16.08C21.52 15.96 21.44 15.92 21.36 15.96C21.24 16 21.2 16.04 21.2 16.08C21.2 16.2 21.24 16.28 21.36 16.28ZM19.44 19C19.24 19 19.16 19.12 19.16 19.32C19.16 19.56 19.24 19.64 19.44 19.64C19.6 19.64 19.68 19.56 19.68 19.32C19.68 19.12 19.6 19 19.44 19ZM21.68 22.08C21.48 22.08 21.4 22.2 21.4 22.4C21.4 22.64 21.48 22.72 21.68 22.72C21.84 22.72 21.92 22.64 21.92 22.4C21.92 22.2 21.84 22.08 21.68 22.08ZM20.6 20.6C20.44 20.6 20.36 20.72 20.36 20.92C20.36 21.16 20.44 21.24 20.6 21.24C20.76 21.24 20.88 21.16 20.88 20.92C20.88 20.72 20.76 20.6 20.6 20.6ZM19.4 21.44C19.4 21.56 19.48 21.6 19.6 21.6C19.64 21.6 19.68 21.56 19.72 21.44C19.76 21.36 19.72 21.28 19.6 21.28C19.44 21.28 19.36 21.36 19.4 21.44ZM12.12 4.2C12.28 4.2 12.36 4.12 12.36 3.88C12.36 3.68 12.28 3.56 12.12 3.56C11.92 3.56 11.84 3.68 11.84 3.88C11.84 4.12 11.92 4.2 12.12 4.2ZM9.6 3.36C9.56 3.48 9.64 3.52 9.8 3.52C9.92 3.52 9.96 3.48 9.92 3.36C9.88 3.28 9.84 3.2 9.8 3.2C9.68 3.2 9.6 3.28 9.6 3.36ZM14.84 19.84C14.68 19.84 14.6 19.96 14.6 20.16C14.6 20.4 14.68 20.52 14.84 20.52C15 20.52 15.08 20.4 15.08 20.16C15.08 19.96 15 19.84 14.84 19.84ZM26.56 12.28C26.4 12.28 26.32 12.4 26.32 12.6C26.32 12.84 26.4 12.92 26.56 12.92C26.72 12.92 26.84 12.84 26.84 12.6C26.84 12.4 26.72 12.28 26.56 12.28ZM5.56 16.68C5.4 16.68 5.32 16.8 5.32 17C5.32 17.24 5.4 17.36 5.56 17.36C5.72 17.36 5.8 17.24 5.8 17C5.8 16.8 5.72 16.68 5.56 16.68ZM14.52 4.92C14.32 4.92 14.24 5.04 14.24 5.24C14.24 5.48 14.32 5.56 14.52 5.56C14.68 5.56 14.76 5.48 14.76 5.24C14.76 5.04 14.68 4.92 14.52 4.92ZM51.5262 2.48C51.3263 2.48 51.2463 2.6 51.2463 2.8C51.2463 3.04 51.3263 3.12 51.5262 3.12C51.6863 3.12 51.7663 3.04 51.7663 2.8C51.7663 2.6 51.6863 2.48 51.5262 2.48ZM54.7663 2.8C54.5663 2.8 54.4863 2.92 54.4863 3.12C54.4863 3.36 54.5663 3.44 54.7663 3.44C54.9263 3.44 55.0063 3.36 55.0063 3.12C55.0063 2.92 54.9263 2.8 54.7663 2.8ZM52.4863 3.12C52.3263 3.12 52.2463 3.24 52.2463 3.44C52.2463 3.68 52.3263 3.76 52.4863 3.76C52.6463 3.76 52.7263 3.68 52.7263 3.44C52.7263 3.24 52.6463 3.12 52.4863 3.12ZM55.7263 3.76C55.5663 3.76 55.4863 3.88 55.4863 4.08C55.4863 4.32 55.5663 4.4 55.7263 4.4C55.8863 4.4 55.9663 4.32 55.9663 4.08C55.9663 3.88 55.8863 3.76 55.7263 3.76ZM52.5663 12.2C52.3663 12.2 52.2863 12.32 52.2863 12.52C52.2863 12.76 52.3663 12.88 52.5663 12.88C52.7263 12.88 52.8063 12.76 52.8063 12.52C52.8063 12.32 52.7263 12.2 52.5663 12.2ZM53.2063 13.84C53.0463 13.84 52.9663 13.96 52.9663 14.16C52.9663 14.4 53.0463 14.48 53.2063 14.48C53.3663 14.48 53.4463 14.4 53.4463 14.16C53.4463 13.96 53.3663 13.84 53.2063 13.84ZM50.2863 14.8C50.2863 14.72 50.2463 14.68 50.0863 14.68C49.9263 14.68 49.8863 14.76 49.9263 14.84C49.9663 14.96 50.0063 15 50.0863 15C50.1663 15 50.2063 14.96 50.2863 14.8ZM61.0863 19.68H61.7263V19.36H61.0863V19.68ZM58.4863 15.16V15.84C58.7263 15.68 58.8863 15.48 58.8863 15.16H58.4863ZM59.8063 6.28L60.1263 6.6L60.4463 6.28L60.1263 5.96L59.8063 6.28ZM55.6063 6.6C55.7663 6.6 55.8463 6.52 55.8463 6.28C55.8463 6.08 55.7663 5.96 55.6063 5.96C55.4463 5.96 55.3663 6.08 55.3663 6.28C55.3663 6.52 55.4463 6.6 55.6063 6.6ZM58.5263 9.52C58.6863 9.52 58.7663 9.44 58.7663 9.2C58.7663 9 58.6863 8.88 58.5263 8.88C58.3263 8.88 58.2463 9 58.2463 9.2C58.2463 9.44 58.3263 9.52 58.5263 9.52ZM57.5263 10.48C57.3663 10.24 57.1663 10.12 56.8863 10.12V10.88C57.2063 10.88 57.4063 10.76 57.5263 10.48ZM60.1263 14.08H60.3263H60.4463V13.36C60.1663 13.36 59.9663 13.48 59.8063 13.72C59.8063 13.92 59.9263 14.04 60.1263 14.08ZM56.8863 17.64V16.92C56.6063 16.92 56.4063 17.08 56.2463 17.32C56.2863 17.48 56.4063 17.6 56.5663 17.64L56.6463 17.68C56.6863 17.68 56.7263 17.68 56.7663 17.68H56.8063C56.8063 17.68 56.8463 17.64 56.8863 17.64ZM59.4863 17.96V18.28H60.1263V17.96H59.4863ZM57.8863 19.56V19.88H58.2063V19.56H57.8863ZM60.7263 4.52C60.8063 4.56 60.8863 4.52 60.8863 4.36C60.8863 4.24 60.8063 4.2 60.7263 4.2C60.6063 4.24 60.5663 4.28 60.5663 4.36C60.5663 4.44 60.6063 4.52 60.7263 4.52ZM61.6863 7.12C61.8463 7.12 61.9263 7.04 61.9263 6.8C61.9263 6.6 61.8463 6.48 61.6863 6.48C61.5263 6.48 61.4463 6.6 61.4463 6.8C61.4463 7.04 61.5263 7.12 61.6863 7.12ZM61.0463 8.76C61.1263 8.76 61.2063 8.72 61.2063 8.56C61.2063 8.44 61.1263 8.4 61.0463 8.44C60.9263 8.48 60.8863 8.52 60.8863 8.56C60.8863 8.68 60.9263 8.76 61.0463 8.76ZM61.6863 14.24C61.8463 14.24 61.9263 14.16 61.9263 13.92C61.9263 13.72 61.8463 13.6 61.6863 13.6C61.5263 13.6 61.4463 13.72 61.4463 13.92C61.4463 14.16 61.5263 14.24 61.6863 14.24ZM59.4063 16.52V17.16H59.7263V16.52H59.4063ZM59.4463 4.08C59.6063 4.08 59.6863 4 59.6863 3.76C59.6863 3.56 59.6063 3.44 59.4463 3.44C59.2463 3.44 59.1663 3.56 59.1663 3.76C59.1663 4 59.2463 4.08 59.4463 4.08ZM57.1663 4.72C57.1263 4.84 57.2063 4.88 57.3663 4.88C57.4863 4.88 57.5263 4.84 57.4863 4.72C57.4463 4.64 57.4063 4.56 57.3663 4.56C57.2463 4.56 57.1663 4.64 57.1663 4.72ZM45.5263 8.36C45.4463 8.36 45.4063 8.4 45.4063 8.48C45.3663 8.56 45.3663 8.64 45.3663 8.72C45.3663 8.8 45.3663 8.88 45.4063 8.96C45.4063 9.04 45.4463 9.08 45.5263 9.04C45.6063 9.04 45.6863 8.92 45.6863 8.72C45.6863 8.52 45.6063 8.4 45.5263 8.36ZM47.7663 4.84C47.6863 4.84 47.6463 4.88 47.6463 4.96C47.6063 5.04 47.6063 5.12 47.6063 5.2C47.6063 5.28 47.6063 5.36 47.6463 5.44C47.6463 5.52 47.6863 5.56 47.7663 5.52C47.8463 5.52 47.9263 5.4 47.9263 5.2C47.9263 5 47.8463 4.88 47.7663 4.84ZM43.9263 7.12C43.9263 7.04 43.8863 6.96 43.7663 6.96C43.6063 6.96 43.5263 7.04 43.6063 7.12C43.6463 7.24 43.6863 7.28 43.7663 7.28C43.8463 7.28 43.8863 7.24 43.9263 7.12ZM42.3263 8.72C42.1263 8.72 42.0463 8.84 42.0463 9.04C42.0463 9.28 42.1263 9.4 42.3263 9.4C42.4863 9.4 42.5663 9.28 42.5663 9.04C42.5663 8.84 42.4863 8.72 42.3263 8.72ZM42.9663 10.36C42.8063 10.36 42.7263 10.48 42.7263 10.68C42.7263 10.92 42.8063 11 42.9663 11C43.1263 11 43.2063 10.92 43.2063 10.68C43.2063 10.48 43.1263 10.36 42.9663 10.36ZM43.2463 13.04L42.9263 13.36L43.2463 13.68V13.04ZM41.0063 14.96C40.8063 14.96 40.7263 15.08 40.7263 15.28C40.7263 15.52 40.8063 15.64 41.0063 15.64C41.1663 15.64 41.2463 15.52 41.2463 15.28C41.2463 15.08 41.1663 14.96 41.0063 14.96ZM46.1263 2.56C45.9663 2.56 45.8863 2.68 45.8863 2.88C45.8863 3.12 45.9663 3.2 46.1263 3.2C46.2863 3.2 46.4063 3.12 46.4063 2.88C46.4063 2.68 46.2863 2.56 46.1263 2.56ZM43.5263 3.52H43.2063V3.84H43.5263V3.52ZM44.8463 6.44H44.5263V6.76L44.8463 6.44ZM44.2063 7.72C44.0063 7.72 43.9263 7.84 43.9263 8.08C43.9263 8.32 44.0063 8.4 44.2063 8.4C44.3663 8.4 44.4463 8.32 44.4463 8.08C44.4463 7.84 44.3663 7.72 44.2063 7.72ZM44.1663 12.12L44.2063 12.28C44.2463 12.44 44.3663 12.56 44.5263 12.6C44.5663 12.56 44.6463 12.44 44.7263 12.28C44.8063 12.12 44.8463 12.04 44.8463 11.96C44.8463 11.92 44.8063 11.84 44.7263 11.76C44.6463 11.68 44.5663 11.64 44.5263 11.64C44.3663 11.72 44.2463 11.8 44.2063 11.96L44.1663 12.04C44.1663 12.08 44.1663 12.12 44.1663 12.12ZM63.5663 3.84V24H53.9663V18H46.6463L50.0463 11.36H53.9663V7.6H49.6063L41.1663 24H31.0063L42.6863 0.959999H60.2463C60.5663 0.959999 60.8863 1.08 61.2863 1.24C61.6863 1.44 62.0463 1.68 62.3663 1.96C62.6863 2.24 62.9663 2.56 63.2063 2.88C63.4463 3.2 63.5663 3.52 63.5663 3.84ZM37.2863 20.48C37.2063 20.64 37.1663 20.8 37.1663 20.88C37.1663 21.04 37.2063 21.12 37.2863 21.2L37.8063 20.88C37.7663 20.64 37.6063 20.48 37.2863 20.48ZM40.4463 20.48C40.5663 20.48 40.6862 20.44 40.7663 20.36C40.8463 20.28 40.9263 20.2 41.0463 20.08V19.96C41.0463 19.88 40.9662 19.8 40.8863 19.76H40.8463C40.8063 19.76 40.7663 19.72 40.7663 19.72L40.6862 19.76C40.6063 19.76 40.5663 19.76 40.5663 19.76L40.3263 20.28L40.4463 20.48ZM34.6463 22.4L34.9663 22.72L35.2863 22.4L34.9663 22.08L34.6463 22.4ZM36.5663 19.16C36.4063 19.16 36.3263 19.28 36.3263 19.48C36.3263 19.72 36.4063 19.8 36.5663 19.8C36.7263 19.8 36.8463 19.72 36.8463 19.48C36.8463 19.28 36.7263 19.16 36.5663 19.16ZM38.5663 13.96C38.4063 14.04 38.3663 14.16 38.3663 14.24C38.3663 14.4 38.4063 14.52 38.5263 14.6H38.9263L38.5663 13.96ZM39.8463 10.4L40.4863 11.04C40.5663 10.96 40.6463 10.84 40.6463 10.68C40.6463 10.76 40.6063 10.76 40.6063 10.68C40.6063 10.64 40.5663 10.56 40.5663 10.4H39.8463ZM38.8063 12.64C38.6863 12.64 38.6463 12.68 38.6463 12.72C38.6463 12.8 38.6863 12.88 38.7663 12.96C38.8463 13.2 38.9663 13.32 39.1663 13.32C39.2463 13.32 39.3263 13.28 39.3263 13.16C39.3263 13.08 39.2863 13 39.2863 12.96C39.1263 12.76 38.9663 12.64 38.8063 12.64ZM59.6463 21.04C59.4863 21.04 59.4063 21.16 59.4063 21.36C59.4063 21.6 59.4863 21.68 59.6463 21.68C59.8063 21.68 59.9263 21.6 59.9263 21.36C59.9263 21.16 59.8063 21.04 59.6463 21.04ZM55.7263 22.4C55.5663 22.4 55.4863 22.52 55.4863 22.72C55.4863 22.96 55.5663 23.04 55.7263 23.04C55.8863 23.04 55.9663 22.96 55.9663 22.72C55.9663 22.52 55.8863 22.4 55.7263 22.4ZM56.6863 21.08C56.5663 21.08 56.5263 21.12 56.5263 21.28C56.5263 21.44 56.5663 21.48 56.6863 21.44C56.7663 21.4 56.8463 21.36 56.8463 21.28C56.8463 21.2 56.7663 21.12 56.6863 21.08ZM51.9263 16.32L52.2463 16.64L52.5663 16.32L52.2463 16L51.9263 16.32ZM91.9813 0.959999V7.6H82.4213V17.4H86.3813V24H77.0613C76.5813 24 76.0613 23.92 75.5813 23.76C75.0612 23.6 74.6213 23.4 74.2213 23.08C73.8213 22.76 73.4613 22.4 73.2213 21.92C72.9813 21.48 72.8613 20.96 72.8613 20.4V7.6H65.9813V0.959999H91.9813ZM77.9813 4.84C77.8213 4.84 77.7413 4.96 77.7413 5.16C77.7413 5.4 77.8213 5.52 77.9813 5.52C78.1413 5.52 78.2213 5.4 78.2213 5.16C78.2213 4.96 78.1413 4.84 77.9813 4.84ZM75.9013 5.72L75.5813 5.4V5.72H75.9013ZM88.0213 1.88V2.6C88.3413 2.6 88.5413 2.48 88.6613 2.2C88.5813 2.04 88.5013 1.96 88.3413 1.88H88.2613C88.2213 1.88 88.1813 1.84 88.1813 1.84L88.1013 1.88C88.0613 1.88 88.0213 1.88 88.0213 1.88ZM89.5813 3.36C89.4213 3.36 89.3413 3.48 89.3413 3.68C89.3413 3.92 89.4213 4.04 89.5813 4.04C89.7413 4.04 89.8213 3.92 89.8213 3.68C89.8213 3.48 89.7413 3.36 89.5813 3.36ZM85.5813 3.6H85.2213V3.92H85.5813V3.6ZM87.5013 4.24L87.1813 3.92V4.24H87.5013ZM82.7413 2.24C82.5413 2.24 82.4613 2.36 82.4613 2.56C82.4613 2.8 82.5413 2.88 82.7413 2.88C82.9013 2.88 82.9813 2.8 82.9813 2.56C82.9813 2.36 82.9013 2.24 82.7413 2.24ZM67.4613 5.84C67.3013 5.84 67.2213 5.96 67.2213 6.16C67.2213 6.4 67.3013 6.52 67.4613 6.52C67.6213 6.52 67.7013 6.4 67.7013 6.16C67.7013 5.96 67.6213 5.84 67.4613 5.84ZM88.4613 4.04H88.1013V4.36H88.4613V4.04ZM90.3013 6.4L89.9813 6.08V6.4H90.3013ZM87.2613 4.92C87.0613 4.92 86.9813 5.04 86.9813 5.24C86.9813 5.48 87.0613 5.56 87.2613 5.56C87.4213 5.56 87.5013 5.48 87.5013 5.24C87.5013 5.04 87.4213 4.92 87.2613 4.92ZM69.0213 3.64C69.0613 3.8 69.1413 3.84 69.2213 3.84C69.2613 3.84 69.3013 3.8 69.3413 3.68C69.3813 3.6 69.3413 3.52 69.2213 3.52C69.0213 3.52 68.9413 3.56 69.0213 3.64ZM67.7813 2.36C67.6213 2.36 67.5413 2.48 67.5413 2.68C67.5413 2.92 67.6213 3 67.7813 3C67.9413 3 68.0213 2.92 68.0213 2.68C68.0213 2.48 67.9413 2.36 67.7813 2.36ZM73.5413 3.8C73.3413 3.8 73.2613 3.92 73.2613 4.12C73.2613 4.36 73.3413 4.44 73.5413 4.44C73.7013 4.44 73.7813 4.36 73.7813 4.12C73.7813 3.92 73.7013 3.8 73.5413 3.8ZM70.3413 3.96C70.1413 3.96 70.0612 4.08 70.0612 4.28C70.0612 4.52 70.1413 4.64 70.3413 4.64C70.5013 4.64 70.5813 4.52 70.5813 4.28C70.5813 4.08 70.5013 3.96 70.3413 3.96ZM71.2613 4.28C71.1013 4.28 71.0213 4.4 71.0213 4.64C71.0213 4.76 71.0213 4.92 71.0613 5.12C71.0613 5.32 71.1413 5.4 71.2213 5.4C71.3013 5.4 71.3813 5.32 71.4613 5.12C71.5013 4.92 71.5413 4.76 71.5413 4.64C71.5413 4.4 71.4213 4.28 71.2613 4.28ZM81.3813 6.44C81.2613 6.44 81.2213 6.48 81.2213 6.64C81.2213 6.8 81.2613 6.84 81.3813 6.8C81.4613 6.76 81.5413 6.72 81.5413 6.64C81.5413 6.56 81.4613 6.48 81.3813 6.44ZM79.3413 6.36C79.1813 6.32 79.1413 6.36 79.1413 6.52C79.1413 6.68 79.1813 6.72 79.3013 6.68C79.3813 6.68 79.4613 6.6 79.4613 6.52C79.4613 6.48 79.4213 6.44 79.3413 6.36ZM80.9413 5.68V6.04L81.2613 5.68H80.9413ZM80.3013 3.44C80.0213 3.56 79.9013 3.76 79.9013 4.08H80.7013C80.7013 3.76 80.5413 3.56 80.3013 3.44ZM76.7413 2.08L76.4213 1.76V2.08H76.7413ZM75.2613 9.52L74.5013 9.64C74.5013 9.96 74.4613 10.24 74.4213 10.4C74.3413 10.56 74.5013 10.64 74.9013 10.64C75.1413 10.64 75.2613 10.64 75.3412 10.56C75.4213 10.48 75.4613 10.36 75.4613 10.2L75.2613 9.52ZM79.9413 21.08C79.8213 21.12 79.7813 21.2 79.7813 21.28C79.7813 21.36 79.8213 21.4 79.9413 21.44C80.0213 21.48 80.1013 21.44 80.1013 21.28C80.1013 21.12 80.0213 21.08 79.9413 21.08ZM77.3413 19.8H77.0213V20.12L77.3413 19.8ZM82.5013 19.48C82.4213 19.48 82.3813 19.56 82.3813 19.64C82.3813 19.72 82.4213 19.76 82.5413 19.8C82.6213 19.84 82.7013 19.8 82.7013 19.64C82.7013 19.48 82.6213 19.44 82.5013 19.48ZM77.2213 15.84C77.1013 15.84 77.0613 15.92 77.0613 16C77.0613 16.08 77.1013 16.12 77.2213 16.16C77.3013 16.2 77.3813 16.16 77.3813 16C77.3813 15.88 77.3013 15.84 77.2213 15.84ZM74.9413 13.56L74.6213 13.24L74.3013 13.56L74.6213 13.88L74.9413 13.56ZM76.2213 10.32C76.0613 10.32 75.9813 10.44 75.9813 10.64C75.9813 10.88 76.0613 10.96 76.2213 10.96C76.3813 10.96 76.5013 10.88 76.5013 10.64C76.5013 10.44 76.3813 10.32 76.2213 10.32ZM77.5413 9C77.3413 9 77.2613 9.12 77.2613 9.36C77.2613 9.6 77.3413 9.68 77.5413 9.68C77.7013 9.68 77.7813 9.6 77.7813 9.36C77.7813 9.12 77.7013 9 77.5413 9ZM78.2213 19.28C78.0213 19.28 77.9413 19.4 77.9413 19.6C77.9413 19.84 78.0213 19.92 78.2213 19.92C78.3813 19.92 78.4613 19.84 78.4613 19.6C78.4613 19.4 78.3813 19.28 78.2213 19.28ZM75.9413 18.64C75.9413 18.76 76.0213 18.8 76.1413 18.8C76.1813 18.8 76.2213 18.76 76.2613 18.64C76.3013 18.56 76.2613 18.48 76.1413 18.48C75.9813 18.48 75.9013 18.56 75.9413 18.64ZM79.3413 12.2L79.0213 12.52H79.3413V12.2ZM79.8213 14.44C79.8213 14.56 79.9013 14.6 80.0213 14.6C80.0613 14.6 80.1013 14.56 80.1413 14.44C80.1813 14.36 80.1413 14.28 80.0213 14.28C79.8613 14.28 79.7813 14.36 79.8213 14.44ZM81.4613 22.2C81.3013 22.16 81.2613 22.24 81.2613 22.4C81.2613 22.56 81.3013 22.6 81.4213 22.56C81.5013 22.52 81.5813 22.48 81.5813 22.4C81.5813 22.32 81.5413 22.28 81.4613 22.2ZM82.1013 18.64H81.3813C81.3813 18.88 81.5013 19.12 81.7813 19.28L82.1013 18.64ZM83.7013 21.68V22.32H84.1013C84.1013 22 83.9413 21.8 83.7013 21.68ZM82.7413 20.36C82.5413 20.36 82.4613 20.48 82.4613 20.68C82.4613 20.92 82.5413 21.04 82.7413 21.04C82.9013 21.04 82.9813 20.92 82.9813 20.68C82.9813 20.48 82.9013 20.36 82.7413 20.36ZM75.8213 21.84L75.5013 21.52V21.84H75.8213ZM94.3797 20.4V4.56C94.3797 4 94.4997 3.52 94.7397 3.04C94.9797 2.6 95.3397 2.24 95.7397 1.92C96.1397 1.6 96.5797 1.36 97.0997 1.2C97.5797 1.04 98.0997 0.959999 98.5797 0.959999H119.18C119.66 0.959999 120.14 1.04 120.66 1.2C121.14 1.36 121.62 1.6 122.02 1.92C122.42 2.24 122.74 2.6 122.98 3.04C123.22 3.52 123.38 4 123.38 4.56V15.6H106.74L109.74 9.28H113.82V7.6H103.94V17.36H123.38V24H98.5797C98.0997 24 97.5797 23.92 97.0997 23.76C96.5797 23.6 96.1397 23.4 95.7397 23.08C95.3397 22.76 94.9797 22.4 94.7397 21.92C94.4997 21.48 94.3797 20.96 94.3797 20.4ZM104.34 5.96C104.5 5.96 104.58 5.88 104.58 5.64C104.58 5.44 104.5 5.32 104.34 5.32C104.14 5.32 104.06 5.44 104.06 5.64C104.06 5.88 104.14 5.96 104.34 5.96ZM103.66 4.68C103.82 4.68 103.94 4.6 103.94 4.36C103.94 4.12 103.82 4 103.66 4C103.5 4 103.42 4.12 103.42 4.36C103.42 4.6 103.5 4.68 103.66 4.68ZM106.26 3.04V2.72H105.94V3.04H106.26ZM119.66 8.68C119.74 8.68 119.82 8.6 119.82 8.52C119.82 8.48 119.74 8.44 119.66 8.4C119.54 8.36 119.5 8.4 119.5 8.52C119.5 8.68 119.54 8.72 119.66 8.68ZM118.38 8.36C118.54 8.36 118.62 8.28 118.62 8.04C118.62 7.84 118.54 7.72 118.38 7.72C118.22 7.72 118.14 7.84 118.14 8.04C118.14 8.28 118.22 8.36 118.38 8.36ZM120.3 4.8C120.14 4.8 120.06 4.92 120.06 5.12C120.06 5.36 120.14 5.28 120.3 4.8ZM119.02 5.44L118.7 5.12V5.44H119.02ZM97.6197 14.56V14.24L97.2997 14.56H97.6197ZM100.22 13.92V13.56H99.8597V13.92H100.22ZM96.2997 12.92C96.4597 12.92 96.5797 12.84 96.5797 12.6C96.5797 12.4 96.4597 12.28 96.2997 12.28C96.1397 12.28 96.0597 12.4 96.0597 12.6C96.0597 12.84 96.1397 12.92 96.2997 12.92ZM97.6197 11C97.5397 10.88 97.4997 10.8 97.4197 10.8C97.3397 10.8 97.2997 10.88 97.2597 10.96C97.2197 11.08 97.2597 11.12 97.4197 11.12C97.5797 11.12 97.6197 11.08 97.6197 11ZM96.2997 7.44V7.08L95.9797 7.44H96.2997ZM114.62 20C114.78 20 114.86 19.88 114.86 19.64C114.86 19.44 114.78 19.32 114.62 19.32C114.42 19.32 114.34 19.44 114.34 19.64C114.34 19.88 114.42 20 114.62 20ZM116.54 20.32C116.7 20.32 116.82 20.24 116.82 20C116.82 19.76 116.7 19.64 116.54 19.64C116.38 19.64 116.3 19.76 116.3 20C116.3 20.24 116.38 20.32 116.54 20.32ZM112.18 21.68C112.34 21.68 112.46 21.6 112.46 21.36C112.46 21.16 112.34 21.04 112.18 21.04C112.02 21.04 111.94 21.16 111.94 21.36C111.94 21.6 112.02 21.68 112.18 21.68ZM121.42 20.32C121.58 20.32 121.66 20.24 121.66 20C121.66 19.76 121.58 19.64 121.42 19.64C121.26 19.64 121.18 19.76 121.18 20C121.18 20.24 121.26 20.32 121.42 20.32ZM121.42 21.92C121.58 21.92 121.66 21.84 121.66 21.6C121.66 21.4 121.58 21.28 121.42 21.28C121.26 21.28 121.18 21.4 121.18 21.6C121.18 21.84 121.26 21.92 121.42 21.92ZM117.86 20.64C117.78 20.52 117.74 20.44 117.66 20.44C117.58 20.44 117.54 20.52 117.5 20.6C117.46 20.72 117.5 20.76 117.66 20.76C117.82 20.76 117.86 20.72 117.86 20.64ZM102.46 20.04C102.62 20.04 102.74 19.96 102.74 19.72C102.74 19.52 102.62 19.4 102.46 19.4C102.3 19.4 102.22 19.52 102.22 19.72C102.22 19.96 102.3 20.04 102.46 20.04ZM99.6197 12.92C99.7797 12.92 99.8997 12.84 99.8997 12.6C99.8997 12.4 99.7797 12.28 99.6197 12.28C99.4597 12.28 99.3797 12.4 99.3797 12.6C99.3797 12.84 99.4597 12.92 99.6197 12.92ZM98.0197 19.08C98.1797 19.08 98.2597 19 98.2597 18.76C98.2597 18.56 98.1797 18.44 98.0197 18.44C97.8597 18.44 97.7797 18.56 97.7797 18.76C97.7797 19 97.8597 19.08 98.0197 19.08ZM97.0597 16.48C97.1397 16.52 97.2197 16.48 97.2197 16.32C97.2197 16.2 97.1397 16.16 97.0597 16.16C96.9397 16.2 96.8997 16.24 96.8997 16.32C96.8997 16.4 96.9397 16.48 97.0597 16.48ZM97.3797 20.72C97.4597 20.72 97.5397 20.68 97.5397 20.52C97.5397 20.4 97.4597 20.36 97.3797 20.4C97.2597 20.44 97.2197 20.48 97.2197 20.52C97.2197 20.64 97.2597 20.72 97.3797 20.72ZM101.58 13.88L101.9 13.56H101.58V13.88ZM118.46 13.56C118.46 13.4 118.42 13.24 118.38 13.16C118.3 13.08 118.14 13.04 117.9 13.04C117.54 13.04 117.38 13.24 117.38 13.56C117.38 13.92 117.54 14.08 117.9 14.08C118.14 14.08 118.3 14.04 118.38 13.96C118.42 13.88 118.46 13.76 118.46 13.56ZM99.5397 4.76C99.5397 4.32 99.3397 4.08 98.9797 4.08C98.7397 4.08 98.5797 4.16 98.4997 4.28C98.4197 4.4 98.4197 4.56 98.4197 4.76C98.4197 5 98.4197 5.16 98.4997 5.24C98.5797 5.36 98.7397 5.4 98.9797 5.4C99.3397 5.4 99.5397 5.2 99.5397 4.76ZM120.94 9.36C120.78 9.36 120.7 9.48 120.7 9.68C120.7 9.92 120.78 10 120.94 10C121.1 10 121.22 9.92 121.22 9.68C121.22 9.48 121.1 9.36 120.94 9.36ZM116.1 10.32C115.94 10.32 115.86 10.44 115.86 10.64C115.86 10.88 115.94 10.96 116.1 10.96C116.26 10.96 116.34 10.88 116.34 10.64C116.34 10.44 116.26 10.32 116.1 10.32ZM115.14 12.92C115.02 12.96 114.98 13 114.98 13.08C114.98 13.16 115.02 13.24 115.14 13.24C115.22 13.28 115.3 13.24 115.3 13.08C115.3 12.96 115.22 12.92 115.14 12.92ZM115.46 8.68C115.34 8.72 115.3 8.8 115.3 8.88C115.3 8.96 115.34 9 115.46 9.04C115.54 9.08 115.62 9.04 115.62 8.88C115.62 8.76 115.54 8.68 115.46 8.68ZM113.54 5.96C113.7 5.96 113.78 5.88 113.78 5.64C113.78 5.44 113.7 5.32 113.54 5.32C113.34 5.32 113.26 5.44 113.26 5.64C113.26 5.88 113.34 5.96 113.54 5.96ZM115.78 2.88C115.94 2.88 116.02 2.8 116.02 2.56C116.02 2.36 115.94 2.24 115.78 2.24C115.58 2.24 115.5 2.36 115.5 2.56C115.5 2.8 115.58 2.88 115.78 2.88ZM114.7 4.36C114.86 4.36 114.98 4.28 114.98 4.04C114.98 3.84 114.86 3.72 114.7 3.72C114.54 3.72 114.46 3.84 114.46 4.04C114.46 4.28 114.54 4.36 114.7 4.36ZM113.5 3.52C113.46 3.64 113.54 3.68 113.7 3.68C113.82 3.68 113.86 3.64 113.82 3.52C113.78 3.44 113.74 3.36 113.7 3.36C113.58 3.36 113.5 3.44 113.5 3.52ZM106.22 20.76C106.02 20.76 105.94 20.88 105.94 21.08C105.94 21.32 106.02 21.4 106.22 21.4C106.38 21.4 106.46 21.32 106.46 21.08C106.46 20.88 106.38 20.76 106.22 20.76ZM103.7 21.6C103.7 21.72 103.78 21.76 103.9 21.76C103.94 21.76 103.98 21.72 104.02 21.6C104.06 21.52 104.02 21.44 103.9 21.44C103.74 21.44 103.66 21.52 103.7 21.6ZM108.94 5.12C109.1 5.12 109.18 5.04 109.18 4.8C109.18 4.56 109.1 4.44 108.94 4.44C108.78 4.44 108.7 4.56 108.7 4.8C108.7 5.04 108.78 5.12 108.94 5.12ZM112.18 14.16C112.34 14.16 112.46 14.08 112.46 13.84C112.46 13.64 112.34 13.52 112.18 13.52C112.02 13.52 111.94 13.64 111.94 13.84C111.94 14.08 112.02 14.16 112.18 14.16ZM99.6597 8.28C99.8197 8.28 99.8997 8.2 99.8997 7.96C99.8997 7.72 99.8197 7.6 99.6597 7.6C99.4997 7.6 99.4197 7.72 99.4197 7.96C99.4197 8.2 99.4997 8.28 99.6597 8.28ZM109.46 19.76C109.62 19.76 109.7 19.68 109.7 19.44C109.7 19.24 109.62 19.12 109.46 19.12C109.26 19.12 109.18 19.24 109.18 19.44C109.18 19.68 109.26 19.76 109.46 19.76ZM110.66 13.48C110.82 13.48 110.9 13.4 110.9 13.16C110.9 12.96 110.82 12.84 110.66 12.84C110.46 12.84 110.38 12.96 110.38 13.16C110.38 13.4 110.46 13.48 110.66 13.48ZM109.98 12.2C110.14 12.2 110.26 12.12 110.26 11.88C110.26 11.64 110.14 11.52 109.98 11.52C109.82 11.52 109.74 11.64 109.74 11.88C109.74 12.12 109.82 12.2 109.98 12.2ZM121.38 13.04V12.72H121.06V13.04H121.38ZM153.146 11.92L157.706 0.959999H167.346L157.306 24H148.986L146.306 17.72L143.546 24H135.226L125.186 0.959999H134.826L139.386 11.92L141.626 6.64L139.106 0.959999H148.546L153.146 11.92ZM145.946 12.44L145.986 12.6C146.026 12.76 146.146 12.88 146.306 12.92C146.346 12.88 146.426 12.76 146.506 12.6C146.586 12.44 146.626 12.36 146.626 12.28C146.626 12.24 146.586 12.16 146.506 12.08C146.426 12 146.346 11.96 146.306 11.96C146.146 12.04 146.026 12.12 145.986 12.28L145.946 12.36C145.946 12.4 145.946 12.44 145.946 12.44ZM145.986 8.04C145.786 8.04 145.706 8.16 145.706 8.4C145.706 8.64 145.786 8.72 145.986 8.72C146.146 8.72 146.226 8.64 146.226 8.4C146.226 8.16 146.146 8.04 145.986 8.04ZM146.306 6.76V7.08L146.626 6.76H146.306ZM144.986 3.84V4.16H145.306V3.84H144.986ZM147.506 2.88C147.346 2.88 147.266 3 147.266 3.2C147.266 3.44 147.346 3.52 147.506 3.52C147.666 3.52 147.786 3.44 147.786 3.2C147.786 3 147.666 2.88 147.506 2.88ZM133.306 9.36C133.146 9.36 133.066 9.48 133.066 9.68C133.066 9.92 133.146 10 133.306 10C133.466 10 133.546 9.92 133.546 9.68C133.546 9.48 133.466 9.36 133.306 9.36ZM132.666 7.72C132.466 7.72 132.386 7.84 132.386 8.04C132.386 8.28 132.466 8.4 132.666 8.4C132.826 8.4 132.906 8.28 132.906 8.04C132.906 7.84 132.826 7.72 132.666 7.72ZM134.266 6.12C134.266 6.04 134.226 5.96 134.106 5.96C133.946 5.96 133.866 6.04 133.946 6.12C133.986 6.24 134.026 6.28 134.106 6.28C134.186 6.28 134.226 6.24 134.266 6.12ZM132.986 4.8C132.786 4.8 132.706 4.92 132.706 5.16C132.706 5.4 132.786 5.48 132.986 5.48C133.146 5.48 133.226 5.4 133.226 5.16C133.226 4.92 133.146 4.8 132.986 4.8ZM133.626 3.84C133.466 3.8 133.426 3.88 133.426 4.04C133.426 4.2 133.466 4.24 133.586 4.2C133.706 4.16 133.786 4.12 133.786 4.04C133.786 3.96 133.706 3.88 133.626 3.84ZM132.666 2.24C132.466 2.24 132.386 2.36 132.386 2.56C132.386 2.8 132.466 2.88 132.666 2.88C132.826 2.88 132.906 2.8 132.906 2.56C132.906 2.36 132.826 2.24 132.666 2.24ZM138.426 17.44C138.346 17.44 138.306 17.44 138.306 17.52C138.266 17.6 138.266 17.68 138.266 17.76C138.266 17.84 138.266 17.92 138.306 18C138.306 18.08 138.346 18.12 138.426 18.08C138.506 18.08 138.586 17.96 138.586 17.76C138.586 17.6 138.506 17.48 138.426 17.44ZM135.826 16.44V16.8H136.146V16.44H135.826ZM138.106 15.16C137.986 15.16 137.946 15.2 137.946 15.36C137.946 15.52 137.986 15.56 138.106 15.52C138.186 15.48 138.266 15.44 138.266 15.36C138.266 15.28 138.186 15.2 138.106 15.16ZM139.746 13.88V14.52H140.066V13.88H139.746ZM140.386 12.56V12.88H140.706V12.56H140.386ZM139.546 21.96C139.546 21.88 139.506 21.84 139.346 21.84C139.186 21.84 139.146 21.92 139.186 22C139.226 22.12 139.266 22.16 139.346 22.16C139.426 22.16 139.466 22.12 139.546 21.96ZM142.466 21C142.306 21 142.226 21.12 142.226 21.32C142.226 21.56 142.306 21.64 142.466 21.64C142.626 21.64 142.706 21.56 142.706 21.32C142.706 21.12 142.626 21 142.466 21ZM137.906 20.04V20.68H138.706C138.706 20.48 138.586 20.32 138.426 20.2C138.226 20.12 138.066 20.04 137.906 20.04ZM141.826 19.36C141.626 19.36 141.546 19.48 141.546 19.68C141.546 19.92 141.626 20.04 141.826 20.04C141.986 20.04 142.066 19.92 142.066 19.68C142.066 19.48 141.986 19.36 141.826 19.36ZM142.786 15.28C142.586 15.28 142.506 15.4 142.506 15.6C142.506 15.84 142.586 15.96 142.786 15.96C142.946 15.96 143.026 15.84 143.026 15.6C143.026 15.4 142.946 15.28 142.786 15.28ZM144.706 13.68L145.026 14V13.36L144.706 13.68ZM130.626 8.48V9.2C131.106 9.2 131.346 8.96 131.346 8.48H130.626ZM129.666 5.88C129.666 5.8 129.626 5.76 129.506 5.76C129.346 5.76 129.266 5.84 129.346 5.92C129.386 6.04 129.426 6.08 129.506 6.08C129.546 6.08 129.586 6.04 129.666 5.88ZM130.626 3.6C130.546 3.6 130.506 3.64 130.506 3.72C130.466 3.8 130.466 3.88 130.466 3.96C130.466 4.04 130.466 4.12 130.506 4.2C130.506 4.28 130.546 4.32 130.626 4.28C130.706 4.28 130.786 4.16 130.786 3.96C130.786 3.76 130.706 3.64 130.626 3.6ZM133.586 13.12V13.44H133.906V13.12H133.586ZM135.986 11.84C135.826 11.84 135.746 11.96 135.746 12.16C135.746 12.4 135.826 12.48 135.986 12.48C136.146 12.48 136.226 12.4 136.226 12.16C136.226 11.96 136.146 11.84 135.986 11.84ZM135.346 10.2C135.146 10.2 135.066 10.32 135.066 10.52C135.066 10.76 135.146 10.88 135.346 10.88C135.506 10.88 135.586 10.76 135.586 10.52C135.586 10.32 135.506 10.2 135.346 10.2ZM144.746 10.68C144.586 10.68 144.506 10.8 144.506 11C144.506 11.24 144.586 11.32 144.746 11.32C144.906 11.32 144.986 11.24 144.986 11C144.986 10.8 144.906 10.68 144.746 10.68ZM144.106 9.04C143.906 9.04 143.826 9.16 143.826 9.36C143.826 9.6 143.906 9.72 144.106 9.72C144.266 9.72 144.346 9.6 144.346 9.36C144.346 9.16 144.266 9.04 144.106 9.04ZM145.706 7.44C145.706 7.36 145.666 7.28 145.546 7.28C145.386 7.28 145.306 7.36 145.386 7.44C145.426 7.56 145.466 7.6 145.546 7.6C145.626 7.6 145.666 7.56 145.706 7.44ZM149.146 5.16C149.066 5.16 149.026 5.2 149.026 5.28C148.986 5.36 148.986 5.44 148.986 5.52C148.986 5.6 148.986 5.68 149.026 5.76C149.026 5.84 149.066 5.88 149.146 5.84C149.226 5.84 149.306 5.72 149.306 5.52C149.306 5.32 149.226 5.2 149.146 5.16ZM135.506 17.88C135.426 17.88 135.386 17.92 135.386 18C135.346 18.08 135.346 18.16 135.346 18.24C135.346 18.32 135.346 18.4 135.386 18.48C135.386 18.56 135.426 18.6 135.506 18.56C135.586 18.56 135.666 18.44 135.666 18.24C135.666 18.04 135.586 17.92 135.506 17.88ZM147.306 8.68C147.226 8.68 147.186 8.72 147.186 8.8C147.146 8.88 147.146 8.96 147.146 9.04C147.146 9.12 147.146 9.2 147.186 9.28C147.186 9.36 147.226 9.4 147.306 9.36C147.386 9.36 147.466 9.24 147.466 9.04C147.466 8.84 147.386 8.72 147.306 8.68ZM127.586 2.48L127.906 2.8V2.16L127.586 2.48ZM158.826 12.12L158.866 12.28C158.906 12.44 159.026 12.56 159.186 12.6C159.226 12.56 159.306 12.44 159.386 12.28C159.466 12.12 159.506 12.04 159.506 11.96C159.506 11.92 159.466 11.84 159.386 11.76C159.306 11.68 159.226 11.64 159.186 11.64C159.026 11.72 158.906 11.8 158.866 11.96L158.826 12.04C158.826 12.08 158.826 12.12 158.826 12.12ZM158.866 7.72C158.666 7.72 158.586 7.84 158.586 8.08C158.586 8.32 158.666 8.4 158.866 8.4C159.026 8.4 159.106 8.32 159.106 8.08C159.106 7.84 159.026 7.72 158.866 7.72ZM159.186 6.44V6.76L159.506 6.44H159.186ZM157.866 3.52V3.84H158.186V3.52H157.866ZM160.786 2.56C160.626 2.56 160.546 2.68 160.546 2.88C160.546 3.12 160.626 3.2 160.786 3.2C160.946 3.2 161.066 3.12 161.066 2.88C161.066 2.68 160.946 2.56 160.786 2.56ZM155.346 20.68C155.186 20.68 155.106 20.8 155.106 21C155.106 21.24 155.186 21.32 155.346 21.32C155.506 21.32 155.586 21.24 155.586 21C155.586 20.8 155.506 20.68 155.346 20.68ZM154.706 19.04C154.506 19.04 154.426 19.16 154.426 19.36C154.426 19.6 154.506 19.72 154.706 19.72C154.866 19.72 154.946 19.6 154.946 19.36C154.946 19.16 154.866 19.04 154.706 19.04ZM155.666 14.96C155.466 14.96 155.386 15.08 155.386 15.28C155.386 15.52 155.466 15.64 155.666 15.64C155.826 15.64 155.906 15.52 155.906 15.28C155.906 15.08 155.826 14.96 155.666 14.96ZM157.586 13.36L157.906 13.68V13.04L157.586 13.36ZM157.626 10.36C157.466 10.36 157.386 10.48 157.386 10.68C157.386 10.92 157.466 11 157.626 11C157.786 11 157.866 10.92 157.866 10.68C157.866 10.48 157.786 10.36 157.626 10.36ZM156.986 8.72C156.786 8.72 156.706 8.84 156.706 9.04C156.706 9.28 156.786 9.4 156.986 9.4C157.146 9.4 157.226 9.28 157.226 9.04C157.226 8.84 157.146 8.72 156.986 8.72ZM158.586 7.12C158.586 7.04 158.546 6.96 158.426 6.96C158.266 6.96 158.186 7.04 158.266 7.12C158.306 7.24 158.346 7.28 158.426 7.28C158.506 7.28 158.546 7.24 158.586 7.12ZM162.426 4.84C162.346 4.84 162.306 4.88 162.306 4.96C162.266 5.04 162.266 5.12 162.266 5.2C162.266 5.28 162.266 5.36 162.306 5.44C162.306 5.52 162.346 5.56 162.426 5.52C162.506 5.52 162.586 5.4 162.586 5.2C162.586 5 162.506 4.88 162.426 4.84ZM160.186 8.36C160.106 8.36 160.066 8.4 160.066 8.48C160.026 8.56 160.026 8.64 160.026 8.72C160.026 8.8 160.026 8.88 160.066 8.96C160.066 9.04 160.106 9.08 160.186 9.04C160.266 9.04 160.346 8.92 160.346 8.72C160.346 8.52 160.266 8.4 160.186 8.36ZM142.226 2.48C142.066 2.48 141.986 2.6 141.986 2.8C141.986 3.04 142.066 3.12 142.226 3.12C142.386 3.12 142.466 3.04 142.466 2.8C142.466 2.6 142.386 2.48 142.226 2.48ZM151.626 17.48C151.426 17.48 151.346 17.6 151.346 17.84C151.346 18.08 151.426 18.16 151.626 18.16C151.786 18.16 151.866 18.08 151.866 17.84C151.866 17.6 151.786 17.48 151.626 17.48ZM152.266 16.52C152.106 16.48 152.066 16.56 152.066 16.72C152.066 16.88 152.106 16.92 152.226 16.88C152.346 16.84 152.426 16.8 152.426 16.72C152.426 16.64 152.346 16.56 152.266 16.52ZM151.306 14.92C151.106 14.92 151.026 15.04 151.026 15.24C151.026 15.48 151.106 15.56 151.306 15.56C151.466 15.56 151.546 15.48 151.546 15.24C151.546 15.04 151.466 14.92 151.306 14.92ZM149.266 16.28C149.186 16.28 149.146 16.32 149.146 16.4C149.106 16.48 149.106 16.56 149.106 16.64C149.106 16.72 149.106 16.8 149.146 16.88C149.146 16.96 149.186 17 149.266 16.96C149.346 16.96 149.426 16.84 149.426 16.64C149.426 16.44 149.346 16.32 149.266 16.28ZM150.666 21.12C150.506 21.12 150.426 21.24 150.426 21.44C150.426 21.68 150.506 21.76 150.666 21.76C150.826 21.76 150.906 21.68 150.906 21.44C150.906 21.24 150.826 21.12 150.666 21.12ZM150.026 19.48C149.826 19.48 149.746 19.6 149.746 19.8C149.746 20.04 149.826 20.16 150.026 20.16C150.186 20.16 150.266 20.04 150.266 19.8C150.266 19.6 150.186 19.48 150.026 19.48ZM158.146 16.2V16.52H158.466V16.2H158.146ZM181.253 2.48C181.053 2.48 180.973 2.6 180.973 2.8C180.973 3.04 181.053 3.12 181.253 3.12C181.413 3.12 181.493 3.04 181.493 2.8C181.493 2.6 181.413 2.48 181.253 2.48ZM184.493 2.8C184.293 2.8 184.213 2.92 184.213 3.12C184.213 3.36 184.293 3.44 184.493 3.44C184.653 3.44 184.733 3.36 184.733 3.12C184.733 2.92 184.653 2.8 184.493 2.8ZM182.213 3.12C182.053 3.12 181.973 3.24 181.973 3.44C181.973 3.68 182.053 3.76 182.213 3.76C182.373 3.76 182.453 3.68 182.453 3.44C182.453 3.24 182.373 3.12 182.213 3.12ZM185.453 3.76C185.293 3.76 185.213 3.88 185.213 4.08C185.213 4.32 185.293 4.4 185.453 4.4C185.613 4.4 185.693 4.32 185.693 4.08C185.693 3.88 185.613 3.76 185.453 3.76ZM182.293 12.2C182.093 12.2 182.013 12.32 182.013 12.52C182.013 12.76 182.093 12.88 182.293 12.88C182.453 12.88 182.533 12.76 182.533 12.52C182.533 12.32 182.453 12.2 182.293 12.2ZM182.933 13.84C182.773 13.84 182.693 13.96 182.693 14.16C182.693 14.4 182.773 14.48 182.933 14.48C183.093 14.48 183.173 14.4 183.173 14.16C183.173 13.96 183.093 13.84 182.933 13.84ZM180.013 14.8C180.013 14.72 179.973 14.68 179.813 14.68C179.653 14.68 179.613 14.76 179.653 14.84C179.693 14.96 179.733 15 179.813 15C179.893 15 179.933 14.96 180.013 14.8ZM190.813 19.68H191.453V19.36H190.813V19.68ZM188.213 15.16V15.84C188.453 15.68 188.613 15.48 188.613 15.16H188.213ZM189.533 6.28L189.853 6.6L190.173 6.28L189.853 5.96L189.533 6.28ZM185.333 6.6C185.493 6.6 185.573 6.52 185.573 6.28C185.573 6.08 185.493 5.96 185.333 5.96C185.173 5.96 185.093 6.08 185.093 6.28C185.093 6.52 185.173 6.6 185.333 6.6ZM188.253 9.52C188.413 9.52 188.493 9.44 188.493 9.2C188.493 9 188.413 8.88 188.253 8.88C188.053 8.88 187.973 9 187.973 9.2C187.973 9.44 188.053 9.52 188.253 9.52ZM187.253 10.48C187.093 10.24 186.893 10.12 186.613 10.12V10.88C186.933 10.88 187.133 10.76 187.253 10.48ZM189.853 14.08H190.053H190.173V13.36C189.893 13.36 189.693 13.48 189.533 13.72C189.533 13.92 189.653 14.04 189.853 14.08ZM186.613 17.64V16.92C186.333 16.92 186.133 17.08 185.973 17.32C186.013 17.48 186.133 17.6 186.293 17.64L186.373 17.68C186.413 17.68 186.453 17.68 186.493 17.68H186.533C186.533 17.68 186.573 17.64 186.613 17.64ZM189.213 17.96V18.28H189.853V17.96H189.213ZM187.613 19.56V19.88H187.933V19.56H187.613ZM190.453 4.52C190.533 4.56 190.613 4.52 190.613 4.36C190.613 4.24 190.533 4.2 190.453 4.2C190.333 4.24 190.293 4.28 190.293 4.36C190.293 4.44 190.333 4.52 190.453 4.52ZM191.413 7.12C191.573 7.12 191.653 7.04 191.653 6.8C191.653 6.6 191.573 6.48 191.413 6.48C191.253 6.48 191.173 6.6 191.173 6.8C191.173 7.04 191.253 7.12 191.413 7.12ZM190.773 8.76C190.853 8.76 190.933 8.72 190.933 8.56C190.933 8.44 190.853 8.4 190.773 8.44C190.653 8.48 190.613 8.52 190.613 8.56C190.613 8.68 190.653 8.76 190.773 8.76ZM191.413 14.24C191.573 14.24 191.653 14.16 191.653 13.92C191.653 13.72 191.573 13.6 191.413 13.6C191.253 13.6 191.173 13.72 191.173 13.92C191.173 14.16 191.253 14.24 191.413 14.24ZM189.133 16.52V17.16H189.453V16.52H189.133ZM189.173 4.08C189.333 4.08 189.413 4 189.413 3.76C189.413 3.56 189.333 3.44 189.173 3.44C188.973 3.44 188.893 3.56 188.893 3.76C188.893 4 188.973 4.08 189.173 4.08ZM186.893 4.72C186.853 4.84 186.933 4.88 187.093 4.88C187.213 4.88 187.253 4.84 187.213 4.72C187.173 4.64 187.133 4.56 187.093 4.56C186.973 4.56 186.893 4.64 186.893 4.72ZM175.253 8.36C175.173 8.36 175.133 8.4 175.133 8.48C175.093 8.56 175.093 8.64 175.093 8.72C175.093 8.8 175.093 8.88 175.133 8.96C175.133 9.04 175.173 9.08 175.253 9.04C175.333 9.04 175.413 8.92 175.413 8.72C175.413 8.52 175.333 8.4 175.253 8.36ZM177.493 4.84C177.413 4.84 177.373 4.88 177.373 4.96C177.333 5.04 177.333 5.12 177.333 5.2C177.333 5.28 177.333 5.36 177.373 5.44C177.373 5.52 177.413 5.56 177.493 5.52C177.573 5.52 177.653 5.4 177.653 5.2C177.653 5 177.573 4.88 177.493 4.84ZM173.653 7.12C173.653 7.04 173.613 6.96 173.493 6.96C173.333 6.96 173.253 7.04 173.333 7.12C173.373 7.24 173.413 7.28 173.493 7.28C173.573 7.28 173.613 7.24 173.653 7.12ZM172.053 8.72C171.853 8.72 171.773 8.84 171.773 9.04C171.773 9.28 171.853 9.4 172.053 9.4C172.213 9.4 172.293 9.28 172.293 9.04C172.293 8.84 172.213 8.72 172.053 8.72ZM172.693 10.36C172.533 10.36 172.453 10.48 172.453 10.68C172.453 10.92 172.533 11 172.693 11C172.853 11 172.933 10.92 172.933 10.68C172.933 10.48 172.853 10.36 172.693 10.36ZM172.973 13.04L172.653 13.36L172.973 13.68V13.04ZM170.733 14.96C170.533 14.96 170.453 15.08 170.453 15.28C170.453 15.52 170.533 15.64 170.733 15.64C170.893 15.64 170.973 15.52 170.973 15.28C170.973 15.08 170.893 14.96 170.733 14.96ZM175.853 2.56C175.693 2.56 175.613 2.68 175.613 2.88C175.613 3.12 175.693 3.2 175.853 3.2C176.013 3.2 176.133 3.12 176.133 2.88C176.133 2.68 176.013 2.56 175.853 2.56ZM173.253 3.52H172.933V3.84H173.253V3.52ZM174.573 6.44H174.253V6.76L174.573 6.44ZM173.933 7.72C173.733 7.72 173.653 7.84 173.653 8.08C173.653 8.32 173.733 8.4 173.933 8.4C174.093 8.4 174.173 8.32 174.173 8.08C174.173 7.84 174.093 7.72 173.933 7.72ZM173.893 12.12L173.933 12.28C173.973 12.44 174.093 12.56 174.253 12.6C174.293 12.56 174.373 12.44 174.453 12.28C174.533 12.12 174.573 12.04 174.573 11.96C174.573 11.92 174.533 11.84 174.453 11.76C174.373 11.68 174.293 11.64 174.253 11.64C174.093 11.72 173.973 11.8 173.933 11.96L173.893 12.04C173.893 12.08 173.893 12.12 173.893 12.12ZM193.293 3.84V24H183.693V18H176.373L179.773 11.36H183.693V7.6H179.333L170.893 24H160.733L172.413 0.959999H189.973C190.293 0.959999 190.613 1.08 191.013 1.24C191.413 1.44 191.773 1.68 192.093 1.96C192.413 2.24 192.693 2.56 192.933 2.88C193.173 3.2 193.293 3.52 193.293 3.84ZM167.013 20.48C166.933 20.64 166.893 20.8 166.893 20.88C166.893 21.04 166.933 21.12 167.013 21.2L167.533 20.88C167.493 20.64 167.333 20.48 167.013 20.48ZM170.173 20.48C170.293 20.48 170.413 20.44 170.493 20.36C170.573 20.28 170.653 20.2 170.773 20.08V19.96C170.773 19.88 170.693 19.8 170.613 19.76H170.573C170.533 19.76 170.493 19.72 170.493 19.72L170.413 19.76C170.333 19.76 170.293 19.76 170.293 19.76L170.053 20.28L170.173 20.48ZM164.373 22.4L164.693 22.72L165.013 22.4L164.693 22.08L164.373 22.4ZM166.293 19.16C166.133 19.16 166.053 19.28 166.053 19.48C166.053 19.72 166.133 19.8 166.293 19.8C166.453 19.8 166.573 19.72 166.573 19.48C166.573 19.28 166.453 19.16 166.293 19.16ZM168.293 13.96C168.133 14.04 168.093 14.16 168.093 14.24C168.093 14.4 168.133 14.52 168.253 14.6H168.653L168.293 13.96ZM169.573 10.4L170.213 11.04C170.293 10.96 170.373 10.84 170.373 10.68C170.373 10.76 170.333 10.76 170.333 10.68C170.333 10.64 170.293 10.56 170.293 10.4H169.573ZM168.533 12.64C168.413 12.64 168.373 12.68 168.373 12.72C168.373 12.8 168.413 12.88 168.493 12.96C168.573 13.2 168.693 13.32 168.893 13.32C168.973 13.32 169.053 13.28 169.053 13.16C169.053 13.08 169.013 13 169.013 12.96C168.853 12.76 168.693 12.64 168.533 12.64ZM189.373 21.04C189.213 21.04 189.133 21.16 189.133 21.36C189.133 21.6 189.213 21.68 189.373 21.68C189.533 21.68 189.653 21.6 189.653 21.36C189.653 21.16 189.533 21.04 189.373 21.04ZM185.453 22.4C185.293 22.4 185.213 22.52 185.213 22.72C185.213 22.96 185.293 23.04 185.453 23.04C185.613 23.04 185.693 22.96 185.693 22.72C185.693 22.52 185.613 22.4 185.453 22.4ZM186.413 21.08C186.293 21.08 186.253 21.12 186.253 21.28C186.253 21.44 186.293 21.48 186.413 21.44C186.493 21.4 186.573 21.36 186.573 21.28C186.573 21.2 186.493 21.12 186.413 21.08ZM181.653 16.32L181.973 16.64L182.293 16.32L181.973 16L181.653 16.32ZM221.228 14.76C221.108 14.72 220.988 14.8 220.908 14.96C220.828 15.12 220.868 15.16 220.988 15.12C221.108 15.08 221.188 15.04 221.228 14.96C221.308 14.88 221.308 14.84 221.228 14.76ZM219.508 16.08C219.348 16.08 219.228 16.2 219.108 16.4C218.948 16.64 218.988 16.72 219.148 16.72C219.308 16.72 219.428 16.64 219.588 16.4C219.708 16.2 219.668 16.08 219.508 16.08ZM221.868 11.88C221.828 11.88 221.788 11.84 221.788 11.8C221.788 11.8 221.748 11.76 221.748 11.72C221.708 11.76 221.668 11.8 221.668 11.8C221.668 11.84 221.628 11.88 221.628 11.88C221.468 12.12 221.508 12.24 221.668 12.16C221.828 12.12 221.908 12.04 221.868 11.88ZM215.028 19C214.948 19.08 214.948 19.12 215.028 19.2C215.028 19.28 215.108 19.32 215.228 19.36C215.348 19.4 215.388 19.36 215.348 19.2C215.228 19.04 215.108 18.96 215.028 19ZM216.748 20.32C216.548 20.32 216.508 20.44 216.668 20.64C216.788 20.88 216.948 20.96 217.108 20.96C217.268 20.96 217.268 20.88 217.148 20.64C216.988 20.44 216.868 20.32 216.748 20.32ZM219.708 21.24L220.308 20.32L219.708 19.32L219.108 20.28L219.708 21.24ZM203.308 8V8.64H203.708C203.708 8.32 203.548 8.12 203.308 8ZM202.348 6.68C202.148 6.68 202.068 6.8 202.068 7C202.068 7.24 202.148 7.36 202.348 7.36C202.508 7.36 202.588 7.24 202.588 7C202.588 6.8 202.508 6.68 202.348 6.68ZM199.308 3.08C199.428 3.16 199.508 3.08 199.508 2.92C199.508 2.8 199.428 2.76 199.348 2.8C199.228 2.84 199.188 2.88 199.188 2.92C199.188 3 199.228 3.08 199.308 3.08ZM197.388 8.28C197.468 8.32 197.548 8.24 197.548 8.08C197.548 7.96 197.468 7.92 197.388 7.96C197.268 8 197.228 8.04 197.228 8.08C197.228 8.2 197.268 8.28 197.388 8.28ZM198.348 2.44V2.12H197.708C197.748 2.28 197.868 2.4 198.028 2.44L198.068 2.48C198.108 2.48 198.148 2.48 198.188 2.48H198.228C198.268 2.48 198.308 2.44 198.348 2.44ZM198.988 10.2C199.148 10.2 199.228 10.12 199.228 9.88C199.228 9.68 199.148 9.56 198.988 9.56C198.828 9.56 198.748 9.68 198.748 9.88C198.748 10.12 198.828 10.2 198.988 10.2ZM198.028 4.72C198.188 4.72 198.268 4.64 198.268 4.4C198.268 4.2 198.188 4.08 198.028 4.08C197.868 4.08 197.788 4.2 197.788 4.4C197.788 4.64 197.868 4.72 198.028 4.72ZM201.588 4.72V4C201.268 4 201.028 4.16 200.948 4.4C200.988 4.56 201.108 4.68 201.268 4.72L201.308 4.76C201.348 4.76 201.388 4.76 201.428 4.76H201.468C201.508 4.76 201.548 4.72 201.588 4.72ZM219.268 4.68C219.108 4.64 219.068 4.68 219.068 4.84C219.068 5 219.108 5.04 219.228 5C219.308 4.96 219.388 4.92 219.388 4.84C219.388 4.8 219.348 4.76 219.268 4.68ZM220.228 5.32V5.64H220.868C220.788 5.48 220.708 5.4 220.548 5.32H220.468C220.428 5.32 220.388 5.28 220.388 5.28L220.308 5.32C220.268 5.32 220.228 5.32 220.228 5.32ZM220.548 3.04C220.388 3.04 220.308 3.16 220.308 3.36C220.308 3.6 220.388 3.68 220.548 3.68C220.708 3.68 220.788 3.6 220.788 3.36C220.788 3.16 220.708 3.04 220.548 3.04ZM216.988 7.6H216.268C216.268 7.84 216.388 8.08 216.668 8.24L216.988 7.6ZM219.268 9.84C219.068 9.84 218.988 9.96 218.988 10.16C218.988 10.4 219.068 10.52 219.268 10.52C219.428 10.52 219.508 10.4 219.508 10.16C219.508 9.96 219.428 9.84 219.268 9.84ZM216.988 3.04V3.76C217.308 3.76 217.508 3.64 217.628 3.36C217.548 3.2 217.468 3.12 217.308 3.04H217.228C217.188 3.04 217.148 3 217.148 3L217.068 3.04C217.028 3.04 216.988 3.04 216.988 3.04ZM198.388 22.8H198.068V23.12H198.388V22.8ZM199.348 19.88V20.52H199.748C199.748 20.2 199.588 20 199.348 19.88ZM198.388 18.56C198.188 18.56 198.108 18.68 198.108 18.88C198.108 19.12 198.188 19.24 198.388 19.24C198.548 19.24 198.628 19.12 198.628 18.88C198.628 18.68 198.548 18.56 198.388 18.56ZM200.308 20.8C200.308 20.72 200.268 20.68 200.108 20.68C199.948 20.68 199.908 20.76 199.948 20.84C199.988 20.96 200.028 21 200.108 21C200.188 21 200.228 20.96 200.308 20.8ZM207.268 21C207.348 21.04 207.428 20.96 207.428 20.8C207.428 20.68 207.348 20.64 207.268 20.68C207.148 20.72 207.108 20.76 207.108 20.8C207.108 20.92 207.148 21 207.268 21ZM198.988 21.12C198.908 21.12 198.868 21.16 198.868 21.16V21.8H198.988C199.148 21.8 199.268 21.68 199.268 21.44C199.268 21.24 199.148 21.12 198.988 21.12ZM208.868 22.92C209.028 22.92 209.108 22.84 209.108 22.6C209.108 22.4 209.028 22.28 208.868 22.28C208.708 22.28 208.628 22.4 208.628 22.6C208.628 22.84 208.708 22.92 208.868 22.92ZM203.868 19.6C203.708 19.6 203.628 19.72 203.628 19.92C203.628 20.16 203.708 20.24 203.868 20.24C204.028 20.24 204.108 20.16 204.108 19.92C204.108 19.72 204.028 19.6 203.868 19.6ZM203.868 21.12C203.708 21.12 203.628 21.24 203.628 21.44C203.628 21.68 203.708 21.8 203.868 21.8C204.028 21.8 204.108 21.68 204.108 21.44C204.108 21.24 204.028 21.12 203.868 21.12ZM209.708 13.88V14.2H210.028L209.708 13.88ZM208.388 13.52C208.228 13.52 208.148 13.64 208.148 13.88C208.148 14.12 208.228 14.2 208.388 14.2C208.548 14.2 208.628 14.12 208.628 13.88C208.628 13.64 208.548 13.52 208.388 13.52ZM212.588 12.88V13.2H212.948V12.88H212.588ZM202.628 13.24V13.56H202.948V13.24H202.628ZM206.868 12.56V13.28C207.148 13.28 207.388 13.16 207.548 12.88C207.468 12.72 207.348 12.6 207.188 12.56H207.108C207.068 12.56 207.028 12.52 207.028 12.52L206.948 12.56C206.908 12.56 206.868 12.56 206.868 12.56ZM213.628 10.76V11.4H214.348C214.348 11.24 214.268 11.08 214.188 10.92C214.068 10.8 213.908 10.72 213.748 10.72L213.628 10.76ZM209.788 10.96C209.628 10.96 209.548 11.08 209.548 11.28C209.548 11.52 209.628 11.6 209.788 11.6C209.948 11.6 210.068 11.52 210.068 11.28C210.068 11.08 209.948 10.96 209.788 10.96ZM200.108 9.92V10.24H200.428V9.92H200.108ZM198.228 13.2C198.028 13.2 197.948 13.32 197.948 13.52C197.948 13.76 198.028 13.84 198.228 13.84C198.388 13.84 198.468 13.76 198.468 13.52C198.468 13.32 198.388 13.2 198.228 13.2ZM199.828 12.56C199.708 12.56 199.668 12.6 199.668 12.76C199.668 12.92 199.708 12.96 199.828 12.92C199.908 12.88 199.988 12.84 199.988 12.76C199.988 12.68 199.908 12.6 199.828 12.56ZM198.868 12.24C198.708 12.2 198.668 12.24 198.668 12.4C198.668 12.56 198.708 12.64 198.828 12.56C198.948 12.52 199.028 12.48 199.028 12.4C199.028 12.32 198.948 12.28 198.868 12.24ZM199.508 11.28V11.6H199.828V11.28H199.508ZM205.548 19.8C205.348 19.8 205.268 19.92 205.268 20.12C205.268 20.36 205.348 20.44 205.548 20.44C205.708 20.44 205.788 20.36 205.788 20.12C205.788 19.92 205.708 19.8 205.548 19.8ZM207.148 18.52C207.028 18.52 206.988 18.56 206.988 18.68C206.988 18.84 207.028 18.88 207.148 18.84C207.228 18.84 207.308 18.76 207.308 18.68C207.308 18.6 207.228 18.56 207.148 18.52ZM207.428 21.28V21.6H207.748V21.28H207.428ZM212.348 20.6C212.188 20.6 212.108 20.72 212.108 20.92C212.108 21.16 212.188 21.24 212.348 21.24C212.508 21.24 212.588 21.16 212.588 20.92C212.588 20.72 212.508 20.6 212.348 20.6ZM217.908 13.36V14.08C218.188 14.08 218.428 13.96 218.588 13.68C218.508 13.52 218.388 13.4 218.228 13.36H218.148C218.108 13.36 218.068 13.32 218.068 13.32L217.988 13.36C217.948 13.36 217.908 13.36 217.908 13.36ZM199.908 15.76C199.428 15.76 198.908 15.68 198.428 15.52C197.908 15.36 197.468 15.16 197.068 14.84C196.668 14.52 196.308 14.16 196.068 13.68C195.828 13.24 195.708 12.72 195.708 12.16V0.959999H205.268V12.08C205.668 11.44 206.148 10.88 206.708 10.48C207.268 10.08 207.868 9.8 208.508 9.6C209.148 9.44 209.788 9.32 210.508 9.24C211.228 9.2 211.948 9.16 212.668 9.16H214.508V0.959999H224.068V20.4C224.068 20.96 223.948 21.48 223.708 21.92C223.468 22.4 223.148 22.76 222.788 23.08C222.388 23.4 221.948 23.6 221.468 23.76C220.988 23.92 220.508 24 220.028 24H195.708V17.4H214.508V15.76H199.908ZM265.419 0.959999V7.6H255.859V17.4H259.819V24H250.499C250.019 24 249.499 23.92 249.019 23.76C248.499 23.6 248.059 23.4 247.659 23.08C247.259 22.76 246.899 22.4 246.659 21.92C246.419 21.48 246.299 20.96 246.299 20.4V7.6H239.419V0.959999H265.419ZM251.419 4.84C251.259 4.84 251.179 4.96 251.179 5.16C251.179 5.4 251.259 5.52 251.419 5.52C251.579 5.52 251.659 5.4 251.659 5.16C251.659 4.96 251.579 4.84 251.419 4.84ZM249.339 5.72L249.019 5.4V5.72H249.339ZM261.459 1.88V2.6C261.779 2.6 261.979 2.48 262.099 2.2C262.019 2.04 261.939 1.96 261.779 1.88H261.699C261.659 1.88 261.619 1.84 261.619 1.84L261.539 1.88C261.499 1.88 261.459 1.88 261.459 1.88ZM263.019 3.36C262.859 3.36 262.779 3.48 262.779 3.68C262.779 3.92 262.859 4.04 263.019 4.04C263.179 4.04 263.259 3.92 263.259 3.68C263.259 3.48 263.179 3.36 263.019 3.36ZM259.019 3.6H258.659V3.92H259.019V3.6ZM260.939 4.24L260.619 3.92V4.24H260.939ZM256.179 2.24C255.979 2.24 255.899 2.36 255.899 2.56C255.899 2.8 255.979 2.88 256.179 2.88C256.339 2.88 256.419 2.8 256.419 2.56C256.419 2.36 256.339 2.24 256.179 2.24ZM240.899 5.84C240.739 5.84 240.659 5.96 240.659 6.16C240.659 6.4 240.739 6.52 240.899 6.52C241.059 6.52 241.139 6.4 241.139 6.16C241.139 5.96 241.059 5.84 240.899 5.84ZM261.899 4.04H261.539V4.36H261.899V4.04ZM263.739 6.4L263.419 6.08V6.4H263.739ZM260.699 4.92C260.499 4.92 260.419 5.04 260.419 5.24C260.419 5.48 260.499 5.56 260.699 5.56C260.859 5.56 260.939 5.48 260.939 5.24C260.939 5.04 260.859 4.92 260.699 4.92ZM242.459 3.64C242.499 3.8 242.579 3.84 242.659 3.84C242.699 3.84 242.739 3.8 242.779 3.68C242.819 3.6 242.779 3.52 242.659 3.52C242.459 3.52 242.379 3.56 242.459 3.64ZM241.219 2.36C241.059 2.36 240.979 2.48 240.979 2.68C240.979 2.92 241.059 3 241.219 3C241.379 3 241.459 2.92 241.459 2.68C241.459 2.48 241.379 2.36 241.219 2.36ZM246.979 3.8C246.779 3.8 246.699 3.92 246.699 4.12C246.699 4.36 246.779 4.44 246.979 4.44C247.139 4.44 247.219 4.36 247.219 4.12C247.219 3.92 247.139 3.8 246.979 3.8ZM243.779 3.96C243.579 3.96 243.499 4.08 243.499 4.28C243.499 4.52 243.579 4.64 243.779 4.64C243.939 4.64 244.019 4.52 244.019 4.28C244.019 4.08 243.939 3.96 243.779 3.96ZM244.699 4.28C244.539 4.28 244.459 4.4 244.459 4.64C244.459 4.76 244.459 4.92 244.499 5.12C244.499 5.32 244.579 5.4 244.659 5.4C244.739 5.4 244.819 5.32 244.899 5.12C244.939 4.92 244.979 4.76 244.979 4.64C244.979 4.4 244.859 4.28 244.699 4.28ZM254.819 6.44C254.699 6.44 254.659 6.48 254.659 6.64C254.659 6.8 254.699 6.84 254.819 6.8C254.899 6.76 254.979 6.72 254.979 6.64C254.979 6.56 254.899 6.48 254.819 6.44ZM252.779 6.36C252.619 6.32 252.579 6.36 252.579 6.52C252.579 6.68 252.619 6.72 252.739 6.68C252.819 6.68 252.899 6.6 252.899 6.52C252.899 6.48 252.859 6.44 252.779 6.36ZM254.379 5.68V6.04L254.699 5.68H254.379ZM253.739 3.44C253.459 3.56 253.339 3.76 253.339 4.08H254.139C254.139 3.76 253.979 3.56 253.739 3.44ZM250.179 2.08L249.859 1.76V2.08H250.179ZM248.699 9.52L247.939 9.64C247.939 9.96 247.899 10.24 247.859 10.4C247.779 10.56 247.939 10.64 248.339 10.64C248.579 10.64 248.699 10.64 248.779 10.56C248.859 10.48 248.899 10.36 248.899 10.2L248.699 9.52ZM253.379 21.08C253.259 21.12 253.219 21.2 253.219 21.28C253.219 21.36 253.259 21.4 253.379 21.44C253.459 21.48 253.539 21.44 253.539 21.28C253.539 21.12 253.459 21.08 253.379 21.08ZM250.779 19.8H250.459V20.12L250.779 19.8ZM255.939 19.48C255.859 19.48 255.819 19.56 255.819 19.64C255.819 19.72 255.859 19.76 255.979 19.8C256.059 19.84 256.139 19.8 256.139 19.64C256.139 19.48 256.059 19.44 255.939 19.48ZM250.659 15.84C250.539 15.84 250.499 15.92 250.499 16C250.499 16.08 250.539 16.12 250.659 16.16C250.739 16.2 250.819 16.16 250.819 16C250.819 15.88 250.739 15.84 250.659 15.84ZM248.379 13.56L248.059 13.24L247.739 13.56L248.059 13.88L248.379 13.56ZM249.659 10.32C249.499 10.32 249.419 10.44 249.419 10.64C249.419 10.88 249.499 10.96 249.659 10.96C249.819 10.96 249.939 10.88 249.939 10.64C249.939 10.44 249.819 10.32 249.659 10.32ZM250.979 9C250.779 9 250.699 9.12 250.699 9.36C250.699 9.6 250.779 9.68 250.979 9.68C251.139 9.68 251.219 9.6 251.219 9.36C251.219 9.12 251.139 9 250.979 9ZM251.659 19.28C251.459 19.28 251.379 19.4 251.379 19.6C251.379 19.84 251.459 19.92 251.659 19.92C251.819 19.92 251.899 19.84 251.899 19.6C251.899 19.4 251.819 19.28 251.659 19.28ZM249.379 18.64C249.379 18.76 249.459 18.8 249.579 18.8C249.619 18.8 249.659 18.76 249.699 18.64C249.739 18.56 249.699 18.48 249.579 18.48C249.419 18.48 249.339 18.56 249.379 18.64ZM252.779 12.2L252.459 12.52H252.779V12.2ZM253.259 14.44C253.259 14.56 253.339 14.6 253.459 14.6C253.499 14.6 253.539 14.56 253.579 14.44C253.619 14.36 253.579 14.28 253.459 14.28C253.299 14.28 253.219 14.36 253.259 14.44ZM254.899 22.2C254.739 22.16 254.699 22.24 254.699 22.4C254.699 22.56 254.739 22.6 254.859 22.56C254.939 22.52 255.019 22.48 255.019 22.4C255.019 22.32 254.979 22.28 254.899 22.2ZM255.539 18.64H254.819C254.819 18.88 254.939 19.12 255.219 19.28L255.539 18.64ZM257.139 21.68V22.32H257.539C257.539 22 257.379 21.8 257.139 21.68ZM256.179 20.36C255.979 20.36 255.899 20.48 255.899 20.68C255.899 20.92 255.979 21.04 256.179 21.04C256.339 21.04 256.419 20.92 256.419 20.68C256.419 20.48 256.339 20.36 256.179 20.36ZM249.259 21.84L248.939 21.52V21.84H249.259ZM287.257 17.32V7.6H277.377V17.32H287.257ZM296.817 4.56V20.4C296.817 20.96 296.657 21.48 296.417 21.92C296.177 22.4 295.857 22.76 295.457 23.08C295.057 23.4 294.577 23.6 294.097 23.76C293.577 23.92 293.097 24 292.617 24H272.017C271.537 24 271.017 23.92 270.537 23.76C270.017 23.6 269.577 23.4 269.177 23.08C268.777 22.76 268.417 22.4 268.177 21.92C267.937 21.48 267.817 20.96 267.817 20.4V4.56C267.817 4 267.937 3.52 268.177 3.04C268.417 2.6 268.777 2.24 269.177 1.92C269.577 1.6 270.017 1.36 270.537 1.2C271.017 1.04 271.537 0.959999 272.017 0.959999H292.617C293.097 0.959999 293.577 1.04 294.097 1.2C294.577 1.36 295.057 1.6 295.457 1.92C295.857 2.24 296.177 2.6 296.417 3.04C296.657 3.52 296.817 4 296.817 4.56ZM274.857 11.36C274.657 11.36 274.577 11.48 274.577 11.68C274.577 11.92 274.657 12 274.857 12C275.017 12 275.097 11.92 275.097 11.68C275.097 11.48 275.017 11.36 274.857 11.36ZM272.257 10.72C272.057 10.72 271.977 10.84 271.977 11.04C271.977 11.28 272.057 11.36 272.257 11.36C272.417 11.36 272.497 11.28 272.497 11.04C272.497 10.84 272.417 10.72 272.257 10.72ZM271.617 9.08C271.457 9.08 271.417 9.16 271.417 9.28C271.417 9.44 271.457 9.48 271.577 9.44C271.657 9.4 271.737 9.36 271.737 9.28C271.737 9.2 271.697 9.16 271.617 9.08ZM270.617 21.04C270.617 21.28 270.617 21.4 270.697 21.4C270.737 21.44 270.857 21.44 271.057 21.44C271.297 21.44 271.417 21.44 271.457 21.4C271.497 21.36 271.537 21.24 271.537 21.04C271.537 20.84 271.497 20.72 271.457 20.68C271.417 20.64 271.297 20.6 271.057 20.6C270.857 20.6 270.737 20.64 270.697 20.68C270.617 20.72 270.617 20.84 270.617 21.04ZM273.697 15.96C273.857 15.96 273.937 15.88 273.937 15.64C273.937 15.44 273.857 15.32 273.697 15.32C273.537 15.32 273.457 15.44 273.457 15.64C273.457 15.88 273.537 15.96 273.697 15.96ZM274.337 17.6C274.417 17.6 274.497 17.52 274.497 17.4C274.497 17.36 274.417 17.32 274.337 17.28C274.217 17.24 274.177 17.28 274.177 17.4C274.177 17.56 274.217 17.6 274.337 17.6ZM276.737 21.32C276.897 21.32 276.977 21.24 276.977 21C276.977 20.8 276.897 20.68 276.737 20.68C276.577 20.68 276.497 20.8 276.497 21C276.497 21.24 276.577 21.32 276.737 21.32ZM275.097 19.36V19.68L275.417 19.36H275.097ZM291.377 16.88C291.177 16.88 291.097 17 291.097 17.2C291.097 17.44 291.177 17.52 291.377 17.52C291.537 17.52 291.617 17.44 291.617 17.2C291.617 17 291.537 16.88 291.377 16.88ZM293.937 13.32C293.817 13.32 293.777 13.36 293.777 13.48C293.777 13.64 293.817 13.68 293.937 13.64C294.017 13.64 294.097 13.56 294.097 13.48C294.097 13.4 294.017 13.36 293.937 13.32ZM289.417 15.92L289.097 16.24H289.417V15.92ZM293.257 11.68C293.417 11.68 293.497 11.6 293.497 11.36C293.497 11.16 293.417 11.04 293.257 11.04C293.097 11.04 293.017 11.16 293.017 11.36C293.017 11.6 293.097 11.68 293.257 11.68ZM289.817 9.16C289.897 9.16 289.977 9.08 289.977 8.96C289.977 8.92 289.897 8.88 289.817 8.84C289.697 8.8 289.657 8.84 289.657 8.96C289.657 9.12 289.697 9.16 289.817 9.16ZM290.137 4.92C290.217 4.92 290.297 4.84 290.297 4.76C290.297 4.68 290.217 4.64 290.137 4.6C290.017 4.6 289.977 4.64 289.977 4.76C289.977 4.92 290.017 4.96 290.137 4.92ZM286.257 20.96C286.417 20.96 286.497 20.88 286.497 20.64C286.497 20.44 286.417 20.32 286.257 20.32C286.057 20.32 285.977 20.44 285.977 20.64C285.977 20.88 286.057 20.96 286.257 20.96ZM271.177 10.08C270.977 10.08 270.897 10.2 270.897 10.4C270.897 10.64 270.977 10.72 271.177 10.72C271.337 10.72 271.417 10.64 271.417 10.4C271.417 10.2 271.337 10.08 271.177 10.08ZM272.777 3.92C272.617 3.92 272.537 4.04 272.537 4.24C272.537 4.48 272.617 4.56 272.777 4.56C272.937 4.56 273.017 4.48 273.017 4.24C273.017 4.04 272.937 3.92 272.777 3.92ZM270.377 3.12C270.257 3.12 270.217 3.2 270.217 3.32C270.217 3.48 270.257 3.52 270.377 3.48C270.457 3.44 270.537 3.4 270.537 3.32C270.537 3.24 270.457 3.16 270.377 3.12ZM273.737 6.52C273.617 6.52 273.577 6.56 273.577 6.68C273.577 6.84 273.617 6.88 273.737 6.84C273.817 6.84 273.897 6.76 273.897 6.68C273.897 6.6 273.817 6.56 273.737 6.52ZM293.577 19.4C293.417 19.4 293.337 19.52 293.337 19.72C293.337 19.96 293.417 20.04 293.577 20.04C293.737 20.04 293.857 19.96 293.857 19.72C293.857 19.52 293.737 19.4 293.577 19.4ZM292.617 20.8C292.417 20.8 292.337 20.92 292.337 21.12C292.337 21.36 292.417 21.44 292.617 21.44C292.777 21.44 292.857 21.36 292.857 21.12C292.857 20.92 292.777 20.8 292.617 20.8ZM291.657 7.24C291.657 7.44 291.657 7.6 291.737 7.68C291.817 7.8 291.977 7.84 292.217 7.84C292.377 7.84 292.577 7.8 292.777 7.68C292.937 7.56 293.057 7.4 293.057 7.24C293.057 7.08 292.937 6.92 292.777 6.8C292.577 6.68 292.377 6.6 292.217 6.6C291.977 6.6 291.817 6.68 291.737 6.76C291.657 6.88 291.657 7.04 291.657 7.24ZM294.257 7.16C294.417 7.16 294.537 7.08 294.537 6.84C294.537 6.64 294.417 6.52 294.257 6.52C294.097 6.52 294.017 6.64 294.017 6.84C294.017 7.08 294.097 7.16 294.257 7.16ZM292.017 5.56C292.177 5.56 292.257 5.48 292.257 5.24C292.257 5.04 292.177 4.92 292.017 4.92C291.817 4.92 291.737 5.04 291.737 5.24C291.737 5.48 291.817 5.56 292.017 5.56ZM269.537 14.96L269.897 15.28V14.96H269.537ZM276.617 2.64C276.697 2.64 276.777 2.56 276.777 2.44C276.777 2.4 276.697 2.36 276.617 2.32C276.497 2.28 276.457 2.32 276.457 2.44C276.457 2.6 276.497 2.64 276.617 2.64ZM290.137 14.16L289.817 14.48H290.137V14.16ZM278.657 19.36L279.017 19.88L279.217 19.36H278.657ZM283.777 21.6L284.297 22.12V21.6H283.777ZM289.817 9.16C289.897 9.16 289.977 9.08 289.977 8.96C289.977 8.92 289.897 8.88 289.817 8.84C289.697 8.8 289.657 8.84 289.657 8.96C289.657 9.12 289.697 9.16 289.817 9.16ZM289.817 9.16C289.897 9.16 289.977 9.08 289.977 8.96C289.977 8.92 289.897 8.88 289.817 8.84C289.697 8.8 289.657 8.84 289.657 8.96C289.657 9.12 289.697 9.16 289.817 9.16ZM282.617 5.6C282.777 5.6 282.857 5.52 282.857 5.28C282.857 5.08 282.777 4.96 282.617 4.96C282.417 4.96 282.337 5.08 282.337 5.28C282.337 5.52 282.417 5.6 282.617 5.6ZM284.377 3.64L284.857 4.04L284.977 3.48L284.377 3.64ZM280.497 3.6C280.337 3.6 280.297 3.68 280.297 3.8C280.297 3.96 280.337 4 280.457 3.96C280.537 3.92 280.617 3.88 280.617 3.8C280.617 3.72 280.577 3.68 280.497 3.6ZM288.137 3C288.217 3 288.297 2.92 288.297 2.8C288.297 2.76 288.217 2.72 288.137 2.68C288.017 2.64 287.977 2.68 287.977 2.8C287.977 2.96 288.017 3 288.137 3ZM346.632 4.56V24H337.072V7.56H334.152V24H324.672V7.56H321.752V24H312.192V0.959999H342.432C342.912 0.959999 343.392 1.04 343.912 1.2C344.392 1.36 344.872 1.6 345.272 1.92C345.672 2.24 345.992 2.6 346.232 3.04C346.472 3.52 346.632 4 346.632 4.56ZM320.392 2.68C320.552 2.68 320.632 2.6 320.632 2.36C320.632 2.16 320.552 2.04 320.392 2.04C320.192 2.04 320.112 2.16 320.112 2.36C320.112 2.6 320.192 2.68 320.392 2.68ZM321.992 2.36L321.672 2.68H321.992V2.36ZM325.152 3.76C325.232 3.76 325.312 3.68 325.312 3.6C325.312 3.52 325.232 3.48 325.152 3.44C325.032 3.44 324.992 3.48 324.992 3.6C324.992 3.76 325.032 3.8 325.152 3.76ZM319.232 20.8C319.072 20.8 318.992 20.92 318.992 21.12C318.992 21.36 319.072 21.48 319.232 21.48C319.392 21.48 319.512 21.36 319.512 21.12C319.512 20.92 319.392 20.8 319.232 20.8ZM314.392 19.84V20.16H314.712L314.392 19.84ZM319.232 18.88H318.912L319.232 19.2V18.88ZM317.312 16.6C317.352 16.76 317.392 16.8 317.472 16.8C317.552 16.8 317.632 16.72 317.632 16.56C317.632 16.48 317.552 16.44 317.472 16.44C317.352 16.44 317.312 16.48 317.312 16.56V16.6ZM318.912 14.32L318.592 14.64H318.912V14.32ZM317.632 14.32H317.312V14.64L317.632 14.32ZM332.672 15.48C332.432 15.64 332.312 15.84 332.312 16.08H332.712L332.672 15.48ZM314.072 9.56C313.952 9.6 313.912 9.64 313.912 9.72C313.912 9.84 313.952 9.88 314.112 9.88C314.192 9.88 314.232 9.84 314.232 9.72C314.232 9.64 314.192 9.56 314.112 9.56H314.072ZM318.272 9.8C318.272 9.92 318.352 9.96 318.472 9.96C318.552 9.96 318.632 9.92 318.632 9.76C318.632 9.68 318.552 9.64 318.472 9.64C318.312 9.64 318.272 9.68 318.272 9.76V9.8ZM316.992 9.16C316.792 9.16 316.712 9.28 316.712 9.48C316.712 9.72 316.792 9.8 316.992 9.8C317.152 9.8 317.232 9.72 317.232 9.48C317.232 9.28 317.152 9.16 316.992 9.16ZM314.712 9.24C314.712 9.36 314.792 9.4 314.912 9.4C314.992 9.4 315.072 9.36 315.072 9.2C315.072 9.12 314.992 9.08 314.912 9.08C314.752 9.08 314.712 9.12 314.712 9.2V9.24ZM327.832 16.72C327.712 16.76 327.672 16.84 327.672 16.92C327.672 17.04 327.712 17.08 327.872 17.08C327.952 17.08 327.992 17.04 327.992 16.92C327.992 16.8 327.912 16.72 327.832 16.72ZM329.832 13.84H329.432V14.48C329.672 14.32 329.832 14.12 329.832 13.84ZM328.472 12.84C328.312 12.84 328.232 12.96 328.232 13.16C328.232 13.4 328.312 13.48 328.472 13.48C328.632 13.48 328.712 13.4 328.712 13.16C328.712 12.96 328.632 12.84 328.472 12.84ZM327.832 11.24C327.672 11.24 327.592 11.36 327.592 11.56C327.592 11.8 327.672 11.88 327.832 11.88C327.992 11.88 328.072 11.8 328.072 11.56C328.072 11.36 327.992 11.24 327.832 11.24ZM327.512 9.28H327.192V9.6H327.512V9.28ZM319.032 5.72C318.832 5.72 318.752 5.84 318.752 6.04C318.752 6.28 318.832 6.36 319.032 6.36C319.192 6.36 319.272 6.28 319.272 6.04C319.272 5.84 319.192 5.72 319.032 5.72ZM319.352 3.44C319.152 3.44 319.072 3.56 319.072 3.76C319.072 4 319.152 4.08 319.352 4.08C319.512 4.08 319.592 4 319.592 3.76C319.592 3.56 319.512 3.44 319.352 3.44ZM318.432 3.12H318.032V3.76C318.272 3.68 318.432 3.44 318.432 3.12ZM325.632 6L325.272 5.68V6.32L325.632 6ZM332.472 5.2L332.432 5C332.352 5.04 332.312 5.08 332.232 5.16C332.152 5.24 332.112 5.28 332.112 5.32L332.072 5.4C332.072 5.48 332.072 5.52 332.072 5.52V5.6C332.072 5.64 332.112 5.68 332.112 5.68C332.272 5.64 332.392 5.52 332.432 5.32L332.472 5.2ZM326.592 3.72C326.432 3.72 326.352 3.84 326.352 4.04C326.352 4.28 326.432 4.36 326.592 4.36C326.752 4.36 326.832 4.28 326.832 4.04C326.832 3.84 326.752 3.72 326.592 3.72ZM328.872 2.08C328.872 2.24 328.912 2.28 329.032 2.28C329.112 2.28 329.192 2.24 329.192 2.08C329.192 2 329.112 1.96 329.032 1.96C328.912 1.96 328.872 2 328.872 2.04V2.08ZM344.312 22L343.992 22.32H344.312V22ZM343.032 22H342.712V22.32L343.032 22ZM341.752 21.68C341.472 21.84 341.352 22.08 341.352 22.32H341.752V21.68ZM341.072 21.04C340.912 21.04 340.832 21.16 340.832 21.36C340.832 21.6 340.912 21.68 341.072 21.68C341.232 21.68 341.352 21.6 341.352 21.36C341.352 21.16 341.232 21.04 341.072 21.04ZM341.752 20.4C341.632 20.44 341.592 20.48 341.592 20.56C341.592 20.68 341.632 20.72 341.792 20.72C341.872 20.72 341.912 20.68 341.912 20.56C341.912 20.48 341.872 20.4 341.832 20.4H341.752ZM343.352 20.08H343.032L343.352 20.4V20.08ZM340.752 19.44C340.672 19.44 340.632 19.52 340.632 19.6C340.632 19.72 340.672 19.76 340.832 19.76C340.912 19.76 340.952 19.72 340.952 19.6C340.952 19.52 340.912 19.44 340.832 19.44H340.752ZM337.432 2.16C337.272 2.16 337.192 2.28 337.192 2.48C337.192 2.72 337.272 2.8 337.432 2.8C337.592 2.8 337.672 2.72 337.672 2.48C337.672 2.28 337.592 2.16 337.432 2.16ZM335.392 4.12L335.032 3.8V4.12H335.392ZM339.072 4.12V3.8L338.752 4.12H339.072ZM343.392 5.12C343.272 5.16 343.232 5.24 343.232 5.32C343.232 5.4 343.272 5.44 343.392 5.48C343.472 5.52 343.552 5.48 343.552 5.32C343.552 5.2 343.472 5.12 343.392 5.12ZM341.992 9.52C342.112 9.6 342.192 9.52 342.192 9.36C342.192 9.24 342.112 9.2 342.032 9.24C341.912 9.28 341.872 9.32 341.872 9.36C341.872 9.48 341.912 9.52 341.992 9.52ZM344.912 11.8L344.592 11.48L344.272 11.8L344.592 12.12L344.912 11.8ZM340.072 12.12C340.232 12.12 340.312 12.04 340.312 11.8C340.312 11.6 340.232 11.48 340.072 11.48C339.912 11.48 339.832 11.6 339.832 11.8C339.832 12.04 339.912 12.12 340.072 12.12ZM338.112 15.04V14.4H337.792V15.04H338.112ZM342.992 15.04C343.152 15.04 343.232 14.96 343.232 14.72C343.232 14.52 343.152 14.4 342.992 14.4C342.792 14.4 342.712 14.52 342.712 14.72C342.712 14.96 342.792 15.04 342.992 15.04ZM341.992 16C341.832 15.76 341.632 15.64 341.352 15.64V16.4C341.672 16.4 341.872 16.28 341.992 16ZM329.752 19.68V18.96C329.472 18.96 329.272 19.12 329.112 19.36C329.152 19.52 329.272 19.64 329.432 19.68L329.512 19.72C329.552 19.72 329.592 19.72 329.632 19.72H329.672C329.672 19.72 329.712 19.68 329.752 19.68ZM332.672 20.32V20H332.032V20.32H332.672ZM327.152 21.6C327.272 21.68 327.352 21.6 327.352 21.44C327.352 21.32 327.272 21.28 327.192 21.32C327.072 21.36 327.032 21.4 327.032 21.44C327.032 21.52 327.072 21.6 327.152 21.6ZM331.072 21.92V21.6H330.752V21.92H331.072ZM331.232 9.64L330.912 9.96H331.232V9.64ZM329.952 9.64H329.632V9.96L329.952 9.64ZM330.272 7.72H329.952L330.272 8.04V7.72ZM315.312 4.2C315.312 3.96 315.272 3.8 315.232 3.72C315.192 3.64 315.032 3.6 314.792 3.6C314.792 3.88 314.792 4.04 314.832 4.12C314.872 4.2 315.032 4.2 315.312 4.2ZM314.512 6.28V5.96H313.872C313.952 6.12 314.032 6.2 314.192 6.28L314.272 6.32C314.312 6.32 314.352 6.32 314.392 6.32L314.512 6.28ZM345.192 17.52C345.192 17.28 345.152 17.12 345.152 17.04C345.112 17 344.952 16.96 344.712 16.96C344.712 17.24 344.712 17.4 344.752 17.44C344.752 17.52 344.912 17.52 345.192 17.52ZM317.232 19.12L316.872 18.8V19.12H317.232ZM316.232 20.76C316.392 20.76 316.512 20.68 316.512 20.44C316.512 20.24 316.392 20.12 316.232 20.12C316.072 20.12 315.992 20.24 315.992 20.44C315.992 20.68 316.072 20.76 316.232 20.76ZM315.592 21.72C315.712 21.8 315.792 21.72 315.792 21.56C315.792 21.4 315.712 21.36 315.592 21.4C315.472 21.48 315.432 21.52 315.432 21.56C315.432 21.64 315.472 21.72 315.592 21.72ZM314.952 22.68V22.36H314.632V22.68H314.952ZM344.632 7.08L344.312 7.4H344.632V7.08ZM343.352 7.08H343.032V7.4L343.352 7.08ZM315.672 13.36C315.512 13.36 315.432 13.48 315.432 13.68C315.432 13.92 315.512 14 315.672 14C315.832 14 315.952 13.92 315.952 13.68C315.952 13.48 315.832 13.36 315.672 13.36ZM316.352 12.72C316.232 12.76 316.192 12.8 316.192 12.88C316.192 13 316.232 13.04 316.392 13.04C316.472 13.04 316.512 13 316.512 12.88C316.512 12.8 316.472 12.72 316.432 12.72H316.352ZM317.952 12.4H317.632L317.952 12.72V12.4ZM315.352 11.76C315.272 11.76 315.232 11.84 315.232 11.92C315.232 12.04 315.272 12.08 315.432 12.08C315.512 12.08 315.552 12.04 315.552 11.92C315.552 11.84 315.512 11.76 315.432 11.76H315.352ZM368.948 2.48C368.748 2.48 368.668 2.6 368.668 2.8C368.668 3.04 368.748 3.12 368.948 3.12C369.108 3.12 369.188 3.04 369.188 2.8C369.188 2.6 369.108 2.48 368.948 2.48ZM372.188 2.8C371.988 2.8 371.908 2.92 371.908 3.12C371.908 3.36 371.988 3.44 372.188 3.44C372.348 3.44 372.428 3.36 372.428 3.12C372.428 2.92 372.348 2.8 372.188 2.8ZM369.908 3.12C369.748 3.12 369.668 3.24 369.668 3.44C369.668 3.68 369.748 3.76 369.908 3.76C370.068 3.76 370.148 3.68 370.148 3.44C370.148 3.24 370.068 3.12 369.908 3.12ZM373.148 3.76C372.988 3.76 372.908 3.88 372.908 4.08C372.908 4.32 372.988 4.4 373.148 4.4C373.308 4.4 373.388 4.32 373.388 4.08C373.388 3.88 373.308 3.76 373.148 3.76ZM369.988 12.2C369.788 12.2 369.708 12.32 369.708 12.52C369.708 12.76 369.788 12.88 369.988 12.88C370.148 12.88 370.228 12.76 370.228 12.52C370.228 12.32 370.148 12.2 369.988 12.2ZM370.628 13.84C370.468 13.84 370.388 13.96 370.388 14.16C370.388 14.4 370.468 14.48 370.628 14.48C370.788 14.48 370.868 14.4 370.868 14.16C370.868 13.96 370.788 13.84 370.628 13.84ZM367.708 14.8C367.708 14.72 367.668 14.68 367.508 14.68C367.348 14.68 367.308 14.76 367.348 14.84C367.388 14.96 367.428 15 367.508 15C367.588 15 367.628 14.96 367.708 14.8ZM378.508 19.68H379.148V19.36H378.508V19.68ZM375.908 15.16V15.84C376.148 15.68 376.308 15.48 376.308 15.16H375.908ZM377.228 6.28L377.548 6.6L377.868 6.28L377.548 5.96L377.228 6.28ZM373.028 6.6C373.188 6.6 373.268 6.52 373.268 6.28C373.268 6.08 373.188 5.96 373.028 5.96C372.868 5.96 372.788 6.08 372.788 6.28C372.788 6.52 372.868 6.6 373.028 6.6ZM375.948 9.52C376.108 9.52 376.188 9.44 376.188 9.2C376.188 9 376.108 8.88 375.948 8.88C375.748 8.88 375.668 9 375.668 9.2C375.668 9.44 375.748 9.52 375.948 9.52ZM374.948 10.48C374.788 10.24 374.588 10.12 374.308 10.12V10.88C374.628 10.88 374.828 10.76 374.948 10.48ZM377.548 14.08H377.748H377.868V13.36C377.588 13.36 377.388 13.48 377.228 13.72C377.228 13.92 377.348 14.04 377.548 14.08ZM374.308 17.64V16.92C374.028 16.92 373.828 17.08 373.668 17.32C373.708 17.48 373.828 17.6 373.988 17.64L374.068 17.68C374.108 17.68 374.148 17.68 374.188 17.68H374.228C374.228 17.68 374.268 17.64 374.308 17.64ZM376.908 17.96V18.28H377.548V17.96H376.908ZM375.308 19.56V19.88H375.628V19.56H375.308ZM378.148 4.52C378.228 4.56 378.308 4.52 378.308 4.36C378.308 4.24 378.228 4.2 378.148 4.2C378.028 4.24 377.988 4.28 377.988 4.36C377.988 4.44 378.028 4.52 378.148 4.52ZM379.108 7.12C379.268 7.12 379.348 7.04 379.348 6.8C379.348 6.6 379.268 6.48 379.108 6.48C378.948 6.48 378.868 6.6 378.868 6.8C378.868 7.04 378.948 7.12 379.108 7.12ZM378.468 8.76C378.548 8.76 378.628 8.72 378.628 8.56C378.628 8.44 378.548 8.4 378.468 8.44C378.348 8.48 378.308 8.52 378.308 8.56C378.308 8.68 378.348 8.76 378.468 8.76ZM379.108 14.24C379.268 14.24 379.348 14.16 379.348 13.92C379.348 13.72 379.268 13.6 379.108 13.6C378.948 13.6 378.868 13.72 378.868 13.92C378.868 14.16 378.948 14.24 379.108 14.24ZM376.828 16.52V17.16H377.148V16.52H376.828ZM376.868 4.08C377.028 4.08 377.108 4 377.108 3.76C377.108 3.56 377.028 3.44 376.868 3.44C376.668 3.44 376.588 3.56 376.588 3.76C376.588 4 376.668 4.08 376.868 4.08ZM374.588 4.72C374.548 4.84 374.628 4.88 374.788 4.88C374.908 4.88 374.948 4.84 374.908 4.72C374.868 4.64 374.828 4.56 374.788 4.56C374.668 4.56 374.588 4.64 374.588 4.72ZM362.948 8.36C362.868 8.36 362.828 8.4 362.828 8.48C362.788 8.56 362.788 8.64 362.788 8.72C362.788 8.8 362.788 8.88 362.828 8.96C362.828 9.04 362.868 9.08 362.948 9.04C363.028 9.04 363.108 8.92 363.108 8.72C363.108 8.52 363.028 8.4 362.948 8.36ZM365.188 4.84C365.108 4.84 365.068 4.88 365.068 4.96C365.028 5.04 365.028 5.12 365.028 5.2C365.028 5.28 365.028 5.36 365.068 5.44C365.068 5.52 365.108 5.56 365.188 5.52C365.268 5.52 365.348 5.4 365.348 5.2C365.348 5 365.268 4.88 365.188 4.84ZM361.348 7.12C361.348 7.04 361.308 6.96 361.188 6.96C361.028 6.96 360.948 7.04 361.028 7.12C361.068 7.24 361.108 7.28 361.188 7.28C361.268 7.28 361.308 7.24 361.348 7.12ZM359.748 8.72C359.548 8.72 359.468 8.84 359.468 9.04C359.468 9.28 359.548 9.4 359.748 9.4C359.908 9.4 359.988 9.28 359.988 9.04C359.988 8.84 359.908 8.72 359.748 8.72ZM360.388 10.36C360.228 10.36 360.148 10.48 360.148 10.68C360.148 10.92 360.228 11 360.388 11C360.548 11 360.628 10.92 360.628 10.68C360.628 10.48 360.548 10.36 360.388 10.36ZM360.668 13.04L360.348 13.36L360.668 13.68V13.04ZM358.428 14.96C358.228 14.96 358.148 15.08 358.148 15.28C358.148 15.52 358.228 15.64 358.428 15.64C358.588 15.64 358.668 15.52 358.668 15.28C358.668 15.08 358.588 14.96 358.428 14.96ZM363.548 2.56C363.388 2.56 363.308 2.68 363.308 2.88C363.308 3.12 363.388 3.2 363.548 3.2C363.708 3.2 363.828 3.12 363.828 2.88C363.828 2.68 363.708 2.56 363.548 2.56ZM360.948 3.52H360.628V3.84H360.948V3.52ZM362.268 6.44H361.948V6.76L362.268 6.44ZM361.628 7.72C361.428 7.72 361.348 7.84 361.348 8.08C361.348 8.32 361.428 8.4 361.628 8.4C361.788 8.4 361.868 8.32 361.868 8.08C361.868 7.84 361.788 7.72 361.628 7.72ZM361.588 12.12L361.628 12.28C361.668 12.44 361.788 12.56 361.948 12.6C361.988 12.56 362.068 12.44 362.148 12.28C362.228 12.12 362.268 12.04 362.268 11.96C362.268 11.92 362.228 11.84 362.148 11.76C362.068 11.68 361.988 11.64 361.948 11.64C361.788 11.72 361.668 11.8 361.628 11.96L361.588 12.04C361.588 12.08 361.588 12.12 361.588 12.12ZM380.988 3.84V24H371.388V18H364.068L367.468 11.36H371.388V7.6H367.028L358.588 24H348.428L360.108 0.959999H377.668C377.988 0.959999 378.308 1.08 378.708 1.24C379.108 1.44 379.468 1.68 379.788 1.96C380.108 2.24 380.388 2.56 380.628 2.88C380.868 3.2 380.988 3.52 380.988 3.84ZM354.708 20.48C354.628 20.64 354.588 20.8 354.588 20.88C354.588 21.04 354.628 21.12 354.708 21.2L355.228 20.88C355.188 20.64 355.028 20.48 354.708 20.48ZM357.868 20.48C357.988 20.48 358.108 20.44 358.188 20.36C358.268 20.28 358.348 20.2 358.468 20.08V19.96C358.468 19.88 358.388 19.8 358.308 19.76H358.268C358.228 19.76 358.188 19.72 358.188 19.72L358.108 19.76C358.028 19.76 357.988 19.76 357.988 19.76L357.748 20.28L357.868 20.48ZM352.068 22.4L352.388 22.72L352.708 22.4L352.388 22.08L352.068 22.4ZM353.988 19.16C353.828 19.16 353.748 19.28 353.748 19.48C353.748 19.72 353.828 19.8 353.988 19.8C354.148 19.8 354.268 19.72 354.268 19.48C354.268 19.28 354.148 19.16 353.988 19.16ZM355.988 13.96C355.828 14.04 355.788 14.16 355.788 14.24C355.788 14.4 355.828 14.52 355.948 14.6H356.348L355.988 13.96ZM357.268 10.4L357.908 11.04C357.988 10.96 358.068 10.84 358.068 10.68C358.068 10.76 358.028 10.76 358.028 10.68C358.028 10.64 357.988 10.56 357.988 10.4H357.268ZM356.228 12.64C356.108 12.64 356.068 12.68 356.068 12.72C356.068 12.8 356.108 12.88 356.188 12.96C356.268 13.2 356.388 13.32 356.588 13.32C356.668 13.32 356.748 13.28 356.748 13.16C356.748 13.08 356.708 13 356.708 12.96C356.548 12.76 356.388 12.64 356.228 12.64ZM377.068 21.04C376.908 21.04 376.828 21.16 376.828 21.36C376.828 21.6 376.908 21.68 377.068 21.68C377.228 21.68 377.348 21.6 377.348 21.36C377.348 21.16 377.228 21.04 377.068 21.04ZM373.148 22.4C372.988 22.4 372.908 22.52 372.908 22.72C372.908 22.96 372.988 23.04 373.148 23.04C373.308 23.04 373.388 22.96 373.388 22.72C373.388 22.52 373.308 22.4 373.148 22.4ZM374.108 21.08C373.988 21.08 373.948 21.12 373.948 21.28C373.948 21.44 373.988 21.48 374.108 21.44C374.188 21.4 374.268 21.36 374.268 21.28C374.268 21.2 374.188 21.12 374.108 21.08ZM369.348 16.32L369.668 16.64L369.988 16.32L369.668 16L369.348 16.32ZM408.483 17.96H407.123L413.603 24H402.563L393.763 16.72H392.963V24H383.403V0.959999H408.483C408.963 0.959999 409.443 1.04 409.923 1.16C410.403 1.32 410.803 1.52 411.203 1.8C411.563 2.08 411.843 2.44 412.083 2.84C412.323 3.28 412.443 3.76 412.443 4.32V14.6C412.443 15.16 412.323 15.68 412.083 16.08C411.843 16.52 411.563 16.88 411.203 17.16C410.803 17.44 410.403 17.64 409.923 17.76C409.443 17.92 408.963 17.96 408.483 17.96ZM402.883 7.6H392.963V14.84C393.803 13.48 394.883 12.56 396.203 12.08C397.483 11.6 398.883 11.36 400.363 11.36H402.883V7.6ZM407.283 2.68C407.163 2.68 407.123 2.72 407.123 2.88C407.123 3.04 407.163 3.08 407.283 3.04C407.363 3 407.443 2.96 407.443 2.88C407.443 2.8 407.363 2.72 407.283 2.68ZM408.923 3C408.723 3 408.643 3.12 408.643 3.32C408.643 3.56 408.723 3.64 408.923 3.64C409.083 3.64 409.163 3.56 409.163 3.32C409.163 3.12 409.083 3 408.923 3ZM408.563 4C408.443 4 408.403 4.04 408.403 4.16C408.403 4.32 408.443 4.36 408.563 4.32C408.643 4.28 408.723 4.24 408.723 4.16C408.723 4.08 408.643 4 408.563 4ZM406.643 4.64C406.483 4.64 406.403 4.76 406.403 4.96C406.403 5.2 406.483 5.28 406.643 5.28C406.803 5.28 406.883 5.2 406.883 4.96C406.883 4.76 406.803 4.64 406.643 4.64ZM403.763 17.6C403.803 17.76 403.923 17.88 404.083 17.92C404.243 17.88 404.323 17.76 404.403 17.6L404.443 17.44C404.443 17.44 404.403 17.4 404.403 17.32V17.24C404.323 17.08 404.243 17 404.083 16.92C403.923 17 403.803 17.08 403.763 17.24L403.723 17.32C403.723 17.4 403.723 17.44 403.723 17.44L403.763 17.6ZM408.443 22.52C408.283 22.52 408.203 22.64 408.203 22.84C408.203 23.08 408.283 23.16 408.443 23.16C408.603 23.16 408.723 23.08 408.723 22.84C408.723 22.64 408.603 22.52 408.443 22.52ZM403.123 20.16C402.923 20.16 402.843 20.28 402.843 20.48C402.843 20.72 402.923 20.84 403.123 20.84C403.283 20.84 403.363 20.72 403.363 20.48C403.363 20.28 403.283 20.16 403.123 20.16ZM405.523 12.52C405.523 12.44 405.483 12.36 405.323 12.36C405.163 12.36 405.003 12.44 404.843 12.52C404.683 12.64 404.603 12.68 404.683 12.68C404.723 12.68 404.883 12.68 405.123 12.64C405.363 12.64 405.483 12.6 405.523 12.52ZM398.963 13.16H399.603V12.84H398.963V13.16ZM397.683 13.8C397.403 13.96 397.283 14.2 397.283 14.48H397.683V13.8ZM399.203 15.08H399.883C399.803 14.92 399.683 14.8 399.523 14.76H399.443C399.403 14.76 399.363 14.72 399.363 14.72L399.283 14.76C399.243 14.76 399.203 14.76 399.203 14.76V15.08ZM397.363 16.36H397.683V16.04H397.363V16.36ZM386.563 15.72V15.4H386.243L386.563 15.72ZM387.883 16.04C387.723 16.04 387.643 16.16 387.643 16.4C387.643 16.64 387.723 16.72 387.883 16.72C388.043 16.72 388.123 16.64 388.123 16.4C388.123 16.16 388.043 16.04 387.883 16.04ZM391.763 17.68C391.763 17.6 391.723 17.52 391.603 17.52C391.443 17.52 391.403 17.6 391.443 17.68C391.443 17.8 391.523 17.84 391.603 17.84C391.683 17.84 391.723 17.8 391.763 17.68ZM389.803 17.36C389.643 17.36 389.563 17.48 389.563 17.68C389.563 17.92 389.643 18 389.803 18C389.963 18 390.083 17.92 390.083 17.68C390.083 17.48 389.963 17.36 389.803 17.36ZM386.203 18.96C386.203 19.12 386.203 19.24 386.243 19.36C386.243 19.48 386.363 19.52 386.563 19.52C386.883 19.52 387.043 19.52 387.123 19.44C387.163 19.36 387.203 19.24 387.203 19C387.203 18.84 387.163 18.68 387.123 18.56C387.043 18.44 386.923 18.36 386.723 18.36C386.363 18.36 386.203 18.56 386.203 18.96ZM405.203 6.92C405.083 6.92 405.043 6.96 405.043 7.12C405.043 7.28 405.083 7.32 405.203 7.28C405.283 7.24 405.363 7.2 405.363 7.12C405.363 7.04 405.283 6.96 405.203 6.92ZM404.243 8.56C404.243 8.48 404.203 8.4 404.043 8.4C403.883 8.4 403.843 8.48 403.883 8.56C403.923 8.68 403.963 8.72 404.043 8.72C404.123 8.72 404.203 8.68 404.243 8.56ZM404.843 10.8C404.683 10.8 404.603 10.92 404.603 11.12C404.603 11.36 404.683 11.48 404.843 11.48C405.003 11.48 405.083 11.36 405.083 11.12C405.083 10.92 405.003 10.8 404.843 10.8ZM405.843 11.8V11.48H406.123L405.843 11.8ZM405.163 13.72H405.483L405.603 13.4H405.283L405.163 13.72ZM386.563 3.24H386.883V2.6H386.563V3.24ZM389.723 3.6C389.763 3.76 389.883 3.88 390.043 3.92C390.203 3.88 390.283 3.76 390.363 3.6L390.403 3.44C390.403 3.44 390.363 3.4 390.363 3.32V3.24C390.283 3.08 390.203 3 390.043 2.92C389.883 3 389.763 3.08 389.723 3.24L389.683 3.32C389.683 3.4 389.683 3.44 389.683 3.44L389.723 3.6ZM385.283 4.24H385.603V3.92H385.283V4.24ZM390.683 5.2C390.523 5.2 390.443 5.32 390.443 5.52C390.443 5.76 390.523 5.84 390.683 5.84C390.843 5.84 390.963 5.76 390.963 5.52C390.963 5.32 390.843 5.2 390.683 5.2ZM384.923 5.2C384.843 5.2 384.803 5.24 384.803 5.32C384.763 5.4 384.763 5.48 384.763 5.52C384.763 5.76 384.803 5.88 384.923 5.84C385.003 5.84 385.083 5.72 385.083 5.52C385.083 5.36 385.003 5.24 384.923 5.2ZM389.083 6.16C388.883 6.16 388.803 6.28 388.803 6.48C388.803 6.72 388.883 6.84 389.083 6.84C389.243 6.84 389.323 6.72 389.323 6.48C389.323 6.28 389.243 6.16 389.083 6.16ZM386.923 12.28H387.243V11.96H386.923V12.28ZM398.083 6V6.32H398.403V6H398.083ZM400.683 5.36C400.523 5.36 400.443 5.48 400.443 5.68C400.443 5.92 400.523 6 400.683 6C400.843 6 400.923 5.92 400.923 5.68C400.923 5.48 400.843 5.36 400.683 5.36ZM399.723 5.36C399.723 5.28 399.643 5.2 399.523 5.2C399.363 5.2 399.323 5.28 399.363 5.36C399.403 5.48 399.443 5.52 399.523 5.52C399.603 5.52 399.683 5.48 399.723 5.36ZM395.803 4.36C395.643 4.36 395.563 4.48 395.563 4.68C395.563 4.92 395.643 5.04 395.803 5.04C395.963 5.04 396.083 4.92 396.083 4.68C396.083 4.48 395.963 4.36 395.803 4.36ZM396.483 3.08C396.283 3.08 396.203 3.2 396.203 3.4C396.203 3.64 396.283 3.72 396.483 3.72C396.643 3.72 396.723 3.64 396.723 3.4C396.723 3.2 396.643 3.08 396.483 3.08ZM407.643 10.04V10.36L407.963 10.04H407.643ZM409.243 10.04C409.083 10.04 409.003 10.16 409.003 10.36C409.003 10.6 409.083 10.68 409.243 10.68C409.403 10.68 409.523 10.6 409.523 10.36C409.523 10.16 409.403 10.04 409.243 10.04ZM410.243 9.04C410.043 9.04 409.963 9.16 409.963 9.4C409.963 9.64 410.043 9.72 410.243 9.72C410.403 9.72 410.483 9.64 410.483 9.4C410.483 9.16 410.403 9.04 410.243 9.04ZM387.043 22.2V22.84H387.363V22.2H387.043ZM388.363 21.52C388.203 21.48 388.163 21.56 388.163 21.72C388.163 21.88 388.203 21.92 388.323 21.88C388.403 21.84 388.483 21.8 388.483 21.72C388.483 21.64 388.443 21.6 388.363 21.52ZM389.003 19.72C388.843 19.72 388.763 19.84 388.763 20.04C388.763 20.28 388.843 20.36 389.003 20.36C389.163 20.36 389.243 20.28 389.243 20.04C389.243 19.84 389.163 19.72 389.003 19.72ZM408.723 15.44C408.723 15.36 408.683 15.28 408.563 15.28C408.403 15.28 408.363 15.36 408.403 15.48C408.443 15.6 408.483 15.64 408.563 15.64C408.603 15.64 408.643 15.6 408.723 15.44ZM401.283 18.88V19.56H401.603V18.88H401.283ZM404.523 22.48H404.843V22.16H404.523V22.48ZM389.923 9.72C389.803 9.72 389.763 9.76 389.763 9.88C389.763 10.04 389.803 10.08 389.923 10.04C390.003 10 390.083 9.96 390.083 9.88C390.083 9.8 390.003 9.72 389.923 9.72ZM387.123 9.92C386.923 9.92 386.843 10.04 386.843 10.24C386.843 10.48 386.923 10.56 387.123 10.56C387.283 10.56 387.403 10.48 387.403 10.24C387.403 10.04 387.283 9.92 387.123 9.92ZM402.403 3.64C402.243 3.64 402.163 3.76 402.163 3.96C402.163 4.2 402.243 4.32 402.403 4.32C402.563 4.32 402.683 4.2 402.683 3.96C402.683 3.76 402.563 3.64 402.403 3.64ZM403.083 2.36C402.883 2.36 402.803 2.48 402.803 2.68C402.803 2.92 402.883 3 403.083 3C403.243 3 403.323 2.92 403.323 2.68C403.323 2.48 403.243 2.36 403.083 2.36ZM424.408 7.56V12.04C424.808 11.4 425.288 10.88 425.848 10.48C426.408 10.08 427.008 9.8 427.648 9.6C428.288 9.44 428.928 9.32 429.648 9.24C430.368 9.2 431.088 9.16 431.808 9.16H438.968C439.448 9.16 439.928 9.24 440.448 9.4C440.928 9.56 441.408 9.8 441.808 10.12C442.208 10.44 442.528 10.8 442.768 11.24C443.008 11.72 443.168 12.2 443.168 12.76V20.4C443.168 20.96 443.048 21.48 442.808 21.92C442.568 22.4 442.248 22.76 441.888 23.08C441.488 23.4 441.048 23.6 440.568 23.76C440.088 23.92 439.608 24 439.128 24H414.848V17.4H433.608V15.76H419.048C418.568 15.76 418.048 15.68 417.568 15.52C417.048 15.36 416.608 15.16 416.208 14.84C415.808 14.52 415.448 14.16 415.208 13.68C414.968 13.24 414.848 12.72 414.848 12.16V4.56C414.848 4 414.968 3.52 415.208 3.04C415.448 2.6 415.728 2.24 416.128 1.92C416.488 1.6 416.928 1.36 417.408 1.2C417.888 1.04 418.408 0.959999 418.888 0.959999H443.168V7.56H424.408ZM434.008 11.32H434.328V11L434.008 11.32ZM437.928 11.32C437.728 11.32 437.648 11.44 437.648 11.64C437.648 11.88 437.728 11.96 437.928 11.96C438.088 11.96 438.168 11.88 438.168 11.64C438.168 11.44 438.088 11.32 437.928 11.32ZM435.648 11.64C435.488 11.64 435.408 11.76 435.408 11.96C435.408 12.2 435.488 12.28 435.648 12.28C435.808 12.28 435.888 12.2 435.888 11.96C435.888 11.76 435.808 11.64 435.648 11.64ZM435.648 18.64C435.528 18.64 435.488 18.68 435.488 18.84C435.488 19 435.528 19.04 435.648 19C435.728 18.96 435.808 18.92 435.808 18.84C435.808 18.76 435.728 18.68 435.648 18.64ZM435.608 19.92C435.448 19.92 435.408 20 435.408 20.12C435.408 20.28 435.448 20.32 435.568 20.28C435.648 20.24 435.728 20.2 435.728 20.12C435.728 20.04 435.688 20 435.608 19.92ZM434.928 20.92C434.768 20.92 434.688 21.04 434.688 21.24C434.688 21.48 434.768 21.56 434.928 21.56C435.088 21.56 435.208 21.48 435.208 21.24C435.208 21.04 435.088 20.92 434.928 20.92ZM433.008 21.56H433.408C433.408 21.24 433.248 21.04 433.008 20.92V21.56ZM431.048 22.2H431.448C431.448 21.96 431.288 21.76 431.048 21.56V22.2ZM420.128 20.2C420.368 20.04 420.528 19.8 420.528 19.56H420.128V20.2ZM418.168 21.16H418.568C418.568 20.96 418.408 20.76 418.168 20.6V21.16ZM422.048 21.48H422.408V21.16H422.048V21.48ZM424.008 21.8H424.328L424.008 21.48V21.8ZM416.888 21.48C416.728 21.48 416.648 21.6 416.648 21.8C416.648 22.04 416.728 22.16 416.888 22.16C417.048 22.16 417.128 22.04 417.128 21.8C417.128 21.6 417.048 21.48 416.888 21.48ZM430.368 4.04C430.208 4 430.168 4.08 430.168 4.24C430.168 4.4 430.208 4.44 430.328 4.4C430.408 4.36 430.488 4.32 430.488 4.24C430.488 4.16 430.448 4.12 430.368 4.04ZM426.808 4.36C426.728 4.36 426.608 4.4 426.448 4.48C426.288 4.56 426.168 4.64 426.128 4.68H427.128C427.128 4.64 427.088 4.56 427.008 4.48C426.928 4.4 426.848 4.36 426.808 4.36ZM424.848 5.04C424.688 5 424.648 5.04 424.648 5.2C424.648 5.36 424.688 5.4 424.808 5.36C424.928 5.36 425.008 5.28 425.008 5.2C425.008 5.12 424.928 5.04 424.848 5.04ZM418.408 3.48C418.408 3.4 418.368 3.32 418.248 3.32C418.088 3.32 418.048 3.4 418.088 3.48C418.128 3.6 418.168 3.64 418.248 3.64C418.328 3.64 418.368 3.6 418.408 3.48ZM420.688 4.44C420.688 4.36 420.648 4.28 420.528 4.28C420.368 4.28 420.288 4.36 420.368 4.48C420.408 4.6 420.448 4.64 420.528 4.64C420.568 4.64 420.608 4.6 420.688 4.44ZM420.048 6.08C419.888 6.08 419.808 6.2 419.808 6.4C419.808 6.6 419.888 6.68 420.048 6.68C420.208 6.68 420.288 6.6 420.288 6.4C420.288 6.2 420.208 6.08 420.048 6.08ZM418.208 8H418.528V7.68L418.208 8ZM422.328 8C422.128 8 422.048 8.12 422.048 8.32C422.048 8.56 422.128 8.64 422.328 8.64C422.488 8.64 422.568 8.56 422.568 8.32C422.568 8.12 422.488 8 422.328 8ZM420.048 8.32C419.888 8.32 419.808 8.44 419.808 8.64C419.808 8.88 419.888 8.96 420.048 8.96C420.208 8.96 420.288 8.88 420.288 8.64C420.288 8.44 420.208 8.32 420.048 8.32ZM432.608 13.76C432.408 13.76 432.328 13.88 432.328 14.08C432.328 14.32 432.408 14.4 432.608 14.4C432.768 14.4 432.848 14.32 432.848 14.08C432.848 13.88 432.768 13.76 432.608 13.76ZM431.288 14.4V14.08H430.968L431.288 14.4ZM436.128 14.96C436.128 15.2 436.128 15.44 436.208 15.68C436.248 15.96 436.408 16.08 436.688 16.08C436.728 16.08 436.768 16.08 436.808 16.08L436.888 16.04C436.928 16 437.008 15.88 437.088 15.72C437.168 15.56 437.208 15.48 437.208 15.4C437.208 15.28 437.088 15.16 436.848 15.08C436.608 15 436.448 14.96 436.328 14.96H436.128ZM439.408 17C439.248 16.96 439.208 17.04 439.208 17.2C439.208 17.36 439.248 17.4 439.368 17.36C439.448 17.32 439.528 17.28 439.528 17.2C439.528 17.12 439.488 17.08 439.408 17ZM436.248 17.32C436.168 17.32 436.048 17.36 435.888 17.44C435.728 17.52 435.608 17.6 435.568 17.64H436.568C436.568 17.6 436.528 17.52 436.448 17.44C436.368 17.36 436.288 17.32 436.248 17.32ZM434.448 18C434.288 17.96 434.248 18 434.248 18.16C434.248 18.32 434.288 18.36 434.408 18.32C434.528 18.32 434.608 18.24 434.608 18.16C434.608 18.08 434.528 18 434.448 18ZM435.688 4V4.72C435.968 4.72 436.208 4.6 436.368 4.32C436.288 4.16 436.168 4.04 436.008 4H435.928C435.888 4 435.848 3.96 435.848 3.96L435.768 4C435.728 4 435.688 4 435.688 4ZM431.168 2.72C431.008 2.72 430.928 2.84 430.928 3.04C430.928 3.28 431.008 3.36 431.168 3.36C431.328 3.36 431.408 3.28 431.408 3.04C431.408 2.84 431.328 2.72 431.168 2.72ZM436.368 2.08V2.72H437.088C437.088 2.56 437.008 2.4 436.928 2.24C436.808 2.12 436.648 2.04 436.488 2.04L436.368 2.08ZM438.608 2.4C438.448 2.4 438.368 2.52 438.368 2.72C438.368 2.96 438.448 3.04 438.608 3.04C438.768 3.04 438.888 2.96 438.888 2.72C438.888 2.52 438.768 2.4 438.608 2.4ZM426.008 14.16L426.368 14.48V14.16H426.008ZM427.008 12.52C426.808 12.52 426.728 12.64 426.728 12.84C426.728 13.08 426.808 13.16 427.008 13.16C427.168 13.16 427.248 13.08 427.248 12.84C427.248 12.64 427.168 12.52 427.008 12.52ZM428.608 11.88C428.488 11.88 428.448 11.92 428.448 12.08C428.448 12.24 428.488 12.28 428.608 12.24C428.688 12.2 428.768 12.16 428.768 12.08C428.768 12 428.688 11.92 428.608 11.88ZM427.648 11.56C427.488 11.52 427.448 11.56 427.448 11.72C427.448 11.88 427.488 11.96 427.608 11.88C427.728 11.84 427.808 11.8 427.808 11.72C427.808 11.64 427.728 11.6 427.648 11.56ZM428.288 10.6V10.92H428.608V10.6H428.288ZM430.168 21.56V21.88H430.488V21.56H430.168ZM430.808 19.92C430.648 19.92 430.568 20.04 430.568 20.24C430.568 20.48 430.648 20.56 430.808 20.56C430.968 20.56 431.048 20.48 431.048 20.24C431.048 20.04 430.968 19.92 430.808 19.92ZM427.888 18.96C427.768 18.96 427.728 19 427.728 19.12C427.728 19.28 427.768 19.32 427.888 19.28C427.968 19.28 428.048 19.2 428.048 19.12C428.048 19.04 427.968 19 427.888 18.96ZM419.088 9.92C418.928 9.92 418.848 10.04 418.848 10.24C418.848 10.48 418.928 10.56 419.088 10.56C419.248 10.56 419.368 10.48 419.368 10.24C419.368 10.04 419.248 9.92 419.088 9.92ZM418.888 8.32V8.64H419.208V8.32H418.888ZM421.688 13.12C421.688 13.04 421.648 13 421.488 13C421.328 13 421.288 13.08 421.328 13.16C421.368 13.28 421.408 13.32 421.488 13.32C421.568 13.32 421.608 13.28 421.688 13.12ZM422.568 11.52C422.568 11.76 422.688 12 422.968 12.16V11.52H422.568ZM423.888 18.36V18.68H424.208V18.36H423.888ZM423.328 20.04C423.328 19.96 423.288 19.92 423.128 19.92C422.968 19.92 422.928 20 422.968 20.08C423.008 20.2 423.048 20.24 423.128 20.24C423.208 20.24 423.248 20.2 423.328 20.04ZM424.608 20.04C424.608 19.96 424.568 19.92 424.448 19.92C424.288 19.92 424.248 20 424.288 20.08C424.288 20.2 424.368 20.24 424.448 20.24C424.488 20.24 424.528 20.2 424.608 20.04ZM417.128 12.84V13.16H417.448V12.84H417.128ZM418.768 11.84C418.768 11.76 418.728 11.72 418.568 11.72C418.408 11.72 418.368 11.8 418.408 11.88C418.448 12 418.488 12.04 418.568 12.04C418.648 12.04 418.688 12 418.768 11.84ZM433.568 6.16C433.568 6.08 433.528 6.04 433.408 6.04C433.248 6.04 433.208 6.12 433.248 6.2C433.248 6.32 433.328 6.36 433.408 6.36C433.448 6.36 433.488 6.32 433.568 6.16ZM422.208 2.16V2.48H422.528V2.16H422.208ZM438.888 21.16V21.48H439.208V21.16H438.888ZM440.528 20.16C440.528 20.08 440.488 20.04 440.328 20.04C440.168 20.04 440.128 20.12 440.168 20.2C440.208 20.32 440.248 20.36 440.328 20.36C440.408 20.36 440.448 20.32 440.528 20.16ZM440.608 5.44C440.448 5.44 440.368 5.56 440.368 5.76C440.368 6 440.448 6.08 440.608 6.08C440.768 6.08 440.888 6 440.888 5.76C440.888 5.56 440.768 5.44 440.608 5.44ZM440.088 13.72H440.408V13.4L440.088 13.72ZM440.768 14.04V14.36H441.088V14.04H440.768ZM416.688 10.92V11.24H417.008V10.92H416.688Z" fill="#3D3D3D"/>
</svg>
