<svg width="345" height="96" viewBox="0 0 345 96" fill="none" xmlns="http://www.w3.org/2000/svg">
<path d="M1.39575 74.3259C1.02867 74.3259 0.662428 74.1815 0.388818 73.8926C-0.144806 73.3402 -0.126954 72.4565 0.428763 71.9212L38.6458 35.232C41.4618 32.529 45.1589 31.1542 48.8662 31.1542C52.0408 31.1542 55.223 32.1611 57.8665 34.2063L86.9711 56.7222C89.0894 58.3605 91.6173 59.223 94.2404 59.223C94.8531 59.223 95.4717 59.1754 96.0911 59.0802C99.3592 58.5789 102.198 56.8072 104.085 54.0915L137.29 6.32448C140.066 2.33164 144.561 3.8147e-05 149.403 3.8147e-05C149.569 3.8147e-05 149.736 0.00340271 149.902 0.00849915C154.929 0.185242 159.468 2.86866 162.045 7.19034L172.11 24.0726C173.928 27.1222 176.98 29.1922 180.485 29.753C181.116 29.8533 181.748 29.9025 182.376 29.9025C185.237 29.9025 188.018 28.8752 190.213 26.9651L196.313 21.6526C199.031 19.2853 202.414 18.0277 205.961 18.0277C206.457 18.0277 206.956 18.0523 207.456 18.1024C211.546 18.5112 215.174 20.5318 217.678 23.7905L240.548 53.5749C242.551 56.1853 245.456 57.8192 248.727 58.1736C249.17 58.222 249.613 58.2458 250.051 58.2458C252.852 58.2458 255.529 57.2729 257.706 55.4417L279.659 36.9815C282.382 34.6924 285.762 33.5419 289.144 33.5419C292.369 33.5419 295.595 34.587 298.26 36.6875L310.072 45.9928C312.248 47.7076 314.853 48.5403 317.444 48.5403C320.942 48.5403 324.413 47.0219 326.76 44.1082L341.74 25.535C342.016 25.1917 342.42 25.0141 342.827 25.0141C343.135 25.0141 343.444 25.1152 343.701 25.3242C344.302 25.8077 344.396 26.6872 343.912 27.2862L328.933 45.8603C326.037 49.4538 321.754 51.3274 317.438 51.3274C314.243 51.3274 311.03 50.3001 308.345 48.1834L296.533 38.8781C294.373 37.1761 291.757 36.3289 289.143 36.3289C286.401 36.3289 283.662 37.2619 281.454 39.1186L259.503 57.5779C256.816 59.8373 253.51 61.0371 250.053 61.0371C249.513 61.0371 248.971 61.0082 248.426 60.9488C244.389 60.5095 240.806 58.4939 238.333 55.2726L215.463 25.4899C213.435 22.8482 210.492 21.2108 207.18 20.8802C207.139 20.876 207.097 20.8726 207.056 20.8683V20.8284H206.432C206.274 20.8224 206.115 20.819 205.957 20.819C203.079 20.819 200.348 21.8387 198.145 23.7557L192.048 29.0689C189.339 31.4269 185.91 32.6938 182.38 32.6947C181.604 32.6947 180.824 32.6335 180.046 32.5086C175.722 31.8178 171.956 29.2644 169.713 25.5035L159.648 8.6196C157.56 5.1162 153.88 2.94092 149.805 2.79901C149.646 2.79221 149.488 2.78963 149.33 2.78963C145.428 2.78963 141.817 4.69984 139.582 7.91858L106.377 55.6856C104.049 59.0335 100.547 61.2198 96.516 61.8393C95.7521 61.9565 94.9899 62.0143 94.2336 62.0143C90.9979 62.0143 87.8777 60.9522 85.2632 58.929L56.1585 36.4139C54.0164 34.757 51.4366 33.9404 48.8637 33.9404C45.8582 33.9404 42.8613 35.0544 40.5781 37.2458L2.36188 73.935C2.09167 74.19 1.74328 74.3259 1.39575 74.3259Z" fill="#A6916E"/>
<path d="M48.377 84.0889H49.3073V34.0905H48.377V84.0889Z" fill="#A6916E"/>
<path d="M148.727 84.0889H149.91V3.15129H148.727V84.0889Z" fill="#A6916E"/>
<path d="M207.055 84.0889H206.008V20.828H207.055V20.868V84.0889Z" fill="#A6916E"/>
<path d="M288.879 84.0889H289.785V36.644H288.879V84.0889Z" fill="#A6916E"/>
<path d="M40.0194 95.8733H39.0702V89.5344H39.0481L37.7871 90.2142L37.5977 89.4664L39.1824 88.6252H40.0194V95.8733Z" fill="#A6916E"/>
<path d="M47.2989 95.8733H42.668V95.27L43.437 94.5222C45.2911 92.7633 46.1272 91.8201 46.1382 90.7325C46.1382 89.9932 45.7813 89.3135 44.6988 89.3135C44.0403 89.3135 43.493 89.6448 43.1591 89.9252L42.8473 89.237C43.3486 88.8121 44.0624 88.4977 44.8993 88.4977C46.462 88.4977 47.1197 89.5684 47.1197 90.605C47.1197 91.9476 46.1493 93.0268 44.6206 94.4968L44.0403 95.0321V95.0576H47.2989V95.8733Z" fill="#A6916E"/>
<path d="M53.0034 96.0005C51.5869 96.0005 50.6267 94.6664 50.6055 92.2702C50.6055 89.84 51.6532 88.4975 53.1266 88.4975C54.6544 88.4975 55.5253 89.857 55.5253 92.1683C55.5253 94.6325 54.6102 96.0005 53.0034 96.0005ZM53.0705 89.2537C52.2123 89.2537 51.5869 90.3074 51.5869 92.2787C51.5869 94.1651 52.1673 95.2357 53.0595 95.2357C54.0638 95.2357 54.5431 94.0632 54.5431 92.2108C54.5431 90.4264 54.0859 89.2537 53.0705 89.2537Z" fill="#A6916E"/>
<path d="M61.0626 95.8733H56.4316V95.27L57.2015 94.5222C59.0539 92.7633 59.89 91.8201 59.9019 90.7325C59.9019 89.9932 59.5442 89.3135 58.4625 89.3135C57.8048 89.3135 57.2576 89.6448 56.9228 89.9252L56.6101 89.237C57.1123 88.8121 57.8269 88.4977 58.663 88.4977C60.2256 88.4977 60.8833 89.5684 60.8833 90.605C60.8833 91.9476 59.9121 93.0268 58.3843 94.4968L57.8048 95.0321V95.0576H61.0626V95.8733Z" fill="#A6916E"/>
<path d="M139.565 95.8733H138.616V89.5344H138.594L137.333 90.2142L137.143 89.4664L138.727 88.6252H139.565V95.8733Z" fill="#A6916E"/>
<path d="M144.553 96.0005C143.036 96.0005 142.121 95.0913 142.121 94.0292C142.121 93.12 142.669 92.4741 143.561 92.0918L143.549 92.0578C142.746 91.6754 142.401 91.0551 142.401 90.4264C142.401 89.2792 143.371 88.4975 144.643 88.4975C146.049 88.4975 146.752 89.3812 146.752 90.2819C146.752 90.8937 146.45 91.5565 145.558 91.9813V92.0153C146.462 92.3722 147.02 93.0095 147.02 93.8847C147.02 95.1508 145.938 96.0005 144.553 96.0005ZM144.431 92.4062C143.583 92.6526 143.125 93.2049 143.125 93.9017C143.092 94.6325 143.65 95.2782 144.577 95.2782C145.458 95.2782 146.027 94.7344 146.027 93.9867C146.027 93.103 145.413 92.6866 144.431 92.4062ZM144.587 89.2027C143.773 89.2027 143.327 89.7381 143.327 90.3584C143.327 91.0891 143.873 91.48 144.709 91.7009C145.335 91.4885 145.815 91.0382 145.815 90.3839C145.815 89.8061 145.469 89.2027 144.587 89.2027Z" fill="#A6916E"/>
<path d="M152.102 96.0005C151.287 96.0005 150.575 95.7371 150.217 95.5077L150.484 94.7429C150.762 94.9214 151.411 95.2018 152.09 95.2018C153.352 95.2018 153.741 94.403 153.731 93.7997C153.719 92.7801 152.805 92.3467 151.857 92.3467H151.31V91.616H151.857C152.571 91.616 153.475 91.2421 153.475 90.3839C153.475 89.8061 153.106 89.2877 152.203 89.2877C151.622 89.2877 151.064 89.5511 150.751 89.7721L150.496 89.0583C150.874 88.7779 151.611 88.4975 152.392 88.4975C153.82 88.4975 154.468 89.3472 154.468 90.2309C154.468 90.9786 154.021 91.6159 153.128 91.9388V91.9559C154.021 92.1343 154.747 92.8056 154.747 93.8167C154.747 94.9808 153.843 96.0005 152.102 96.0005Z" fill="#A6916E"/>
<path d="M160.608 95.8733H155.977V95.27L156.747 94.5222C158.599 92.7633 159.436 91.8201 159.447 90.7325C159.447 89.9932 159.09 89.3135 158.007 89.3135C157.35 89.3135 156.802 89.6448 156.468 89.9252L156.155 89.237C156.657 88.8121 157.372 88.4977 158.209 88.4977C159.771 88.4977 160.43 89.5684 160.43 90.605C160.43 91.9476 159.459 93.0268 157.929 94.4968L157.35 95.0321V95.0576H160.608V95.8733Z" fill="#A6916E"/>
<path d="M197.245 95.8733H196.297V89.5344H196.274L195.014 90.2142L194.824 89.4664L196.408 88.6252H197.245V95.8733Z" fill="#A6916E"/>
<path d="M201.667 96.0005C200.875 96.0005 200.205 95.7711 199.859 95.5502L200.105 94.8024C200.407 94.9809 200.997 95.2018 201.656 95.2018C202.582 95.2018 203.374 94.5985 203.374 93.6298C203.363 92.6951 202.737 92.0238 201.288 92.0238C200.875 92.0238 200.551 92.0663 200.283 92.1003L200.752 88.6249H204.223V89.4492H201.454L201.176 91.3101C201.343 91.2846 201.499 91.2676 201.767 91.2676C202.326 91.2676 202.883 91.3865 203.33 91.6585C203.898 91.9813 204.366 92.6016 204.366 93.5193C204.366 94.9384 203.24 96.0005 201.667 96.0005Z" fill="#A6916E"/>
<path d="M209.704 96.0005C208.911 96.0005 208.241 95.7711 207.896 95.5502L208.14 94.8024C208.442 94.9809 209.034 95.2018 209.692 95.2018C210.618 95.2018 211.411 94.5985 211.411 93.6298C211.399 92.6951 210.774 92.0238 209.324 92.0238C208.911 92.0238 208.587 92.0663 208.32 92.1003L208.789 88.6249H212.258V89.4492H209.491L209.212 91.3101C209.38 91.2846 209.536 91.2676 209.804 91.2676C210.362 91.2676 210.92 91.3865 211.366 91.6585C211.934 91.9813 212.403 92.6016 212.403 93.5193C212.403 94.9384 211.277 96.0005 209.704 96.0005Z" fill="#A6916E"/>
<path d="M215.509 96.0005C214.695 96.0005 213.98 95.7371 213.623 95.5077L213.891 94.7429C214.169 94.9214 214.817 95.2018 215.497 95.2018C216.759 95.2018 217.149 94.403 217.137 93.7997C217.126 92.7801 216.211 92.3467 215.262 92.3467H214.717V91.616H215.262C215.977 91.616 216.882 91.2421 216.882 90.3839C216.882 89.8061 216.514 89.2877 215.609 89.2877C215.029 89.2877 214.471 89.5511 214.158 89.7721L213.902 89.0583C214.281 88.7779 215.018 88.4975 215.799 88.4975C217.226 88.4975 217.874 89.3472 217.874 90.2309C217.874 90.9786 217.428 91.6159 216.534 91.9388V91.9559C217.428 92.1343 218.153 92.8056 218.153 93.8167C218.153 94.9808 217.249 96.0005 215.509 96.0005Z" fill="#A6916E"/>
<path d="M280.045 95.8733H279.096V89.5344H279.074L277.813 90.2142L277.623 89.4664L279.208 88.6252H280.045V95.8733Z" fill="#A6916E"/>
<path d="M287.322 95.8733H282.691V95.27L283.461 94.5222C285.314 92.7633 286.151 91.8201 286.162 90.7325C286.162 89.9932 285.805 89.3135 284.722 89.3135C284.064 89.3135 283.517 89.6448 283.183 89.9252L282.871 89.237C283.373 88.8121 284.087 88.4977 284.924 88.4977C286.485 88.4977 287.143 89.5684 287.143 90.605C287.143 91.9476 286.173 93.0268 284.645 94.4968L284.064 95.0321V95.0576H287.322V95.8733Z" fill="#A6916E"/>
<path d="M291.466 95.9944C291.407 95.9944 291.351 95.9944 291.299 95.9859V95.1872C291.358 95.1872 291.42 95.1956 291.484 95.1956C291.654 95.1956 291.85 95.1786 292.092 95.1531C292.661 95.0767 293.196 94.8387 293.609 94.4479C294.089 94.0145 294.434 93.3772 294.568 92.519H294.534C294.134 93.0118 293.553 93.3008 292.828 93.3008C291.523 93.3008 290.686 92.3151 290.686 91.0745C290.686 89.7064 291.678 88.4998 293.162 88.4998C294.646 88.4998 295.562 89.7064 295.562 91.5588C295.562 93.1563 295.026 94.2694 294.312 94.9577C293.754 95.51 292.984 95.8414 292.203 95.9349C291.925 95.9774 291.675 95.9944 291.466 95.9944ZM293.084 89.2476C292.248 89.2476 291.656 89.9868 291.656 91.0065C291.656 91.9157 292.203 92.553 293.051 92.553C293.709 92.553 294.222 92.2301 294.479 91.7883C294.534 91.7033 294.568 91.5928 294.568 91.4314C294.568 90.1993 294.111 89.2476 293.084 89.2476Z" fill="#A6916E"/>
<path d="M298.899 96.0005C297.348 96.0005 296.332 94.7939 296.332 92.9075C296.332 91.48 296.846 90.3499 297.561 89.6361C298.162 89.0413 298.966 88.6759 299.88 88.5654C300.17 88.5229 300.417 88.506 300.595 88.506V89.3132C300.547 89.3132 300.495 89.3047 300.44 89.3047C300.269 89.3047 300.07 89.3217 299.858 89.3557C298.318 89.6106 297.505 90.7407 297.336 91.9388H297.37C297.716 91.48 298.318 91.0976 299.123 91.0976C300.406 91.0976 301.309 92.0238 301.309 93.4429C301.309 94.7684 300.406 96.0005 298.899 96.0005ZM298.821 91.8369C298.229 91.8369 297.683 92.2022 297.415 92.7291C297.348 92.8395 297.303 92.984 297.303 93.1624C297.325 94.352 297.873 95.2357 298.899 95.2357C299.746 95.2357 300.316 94.5305 300.316 93.4938C300.316 92.4572 299.724 91.8369 298.821 91.8369Z" fill="#A6916E"/>
</svg>
