<svg width="137" height="252" viewBox="0 0 137 252" fill="none" xmlns="http://www.w3.org/2000/svg">
<g opacity="0.4">
<path d="M208.283 55.8538C230.236 76.03 244 105.016 244 137.204C244 198.28 194.488 247.793 133.393 247.793C93.9199 247.793 59.2724 227.113 39.7109 195.987" stroke="#A6916E" stroke-width="6.66667" stroke-miterlimit="10"/>
<path d="M68.1376 172.344C62.488 161.881 59.2852 149.93 59.2852 137.204C59.2852 96.2617 92.4696 63.0835 133.394 63.0835C151 63.0835 167.162 69.2065 179.875 79.4667" stroke="#A6916E" stroke-width="6.66667" stroke-miterlimit="10"/>
<path d="M225.182 114.589C225.182 175.671 175.67 225.184 114.588 225.184C53.5123 225.184 4 175.671 4 114.589C4 53.5129 53.5123 4.00057 114.588 4.00057C175.67 4.00057 225.182 53.5129 225.182 114.589Z" stroke="#A6916E" stroke-width="6.66667" stroke-miterlimit="10"/>
<path d="M188.708 114.588C188.708 155.525 155.524 188.703 114.587 188.703C73.6571 188.703 40.4727 155.525 40.4727 114.588C40.4727 73.6581 73.6571 40.4736 114.587 40.4736C155.524 40.4736 188.708 73.6581 188.708 114.588Z" stroke="#A6916E" stroke-width="6.66667" stroke-miterlimit="10"/>
</g>
</svg>
