<svg width="104" height="72" viewBox="0 0 104 72" fill="none" xmlns="http://www.w3.org/2000/svg">
<g opacity="0.2">
<path d="M102.768 25.5709L58.1695 25.5709L58.1695 70.1697L102.768 70.1697L102.768 25.5709ZM56.9371 24.3379L104 24.3379L104 71.4027L56.9371 71.4027L56.9371 24.3379Z" fill="black"/>
<path d="M58.169 25.5723L102.768 25.5723L102.768 70.1706L58.169 70.1706L58.169 25.5723ZM99.0716 66.474L99.0716 29.2689L61.8646 29.2689L61.8646 66.474L99.0716 66.474Z" fill="#A6916E"/>
<path d="M57.5535 24.9512L103.385 24.9512L103.385 70.7827L57.5535 70.7827L57.5535 24.9512ZM102.769 70.167L102.769 25.5669L58.1699 25.5669L58.1699 70.167L102.769 70.167Z" fill="black"/>
<path d="M84.8789 52.2858L76.0553 52.2858L76.0553 43.4609L84.8789 43.4609L84.8789 52.2858Z" fill="black"/>
<path d="M-35.5868 3.79296L37.2629 3.79297L57.9883 24.5207L57.117 25.3914L36.7524 5.02474L-35.5868 5.02474L-35.5868 3.79296Z" fill="black"/>
</g>
</svg>
