<svg width="450" height="451" viewBox="0 0 450 451" fill="none" xmlns="http://www.w3.org/2000/svg">
<g opacity="0.68" clip-path="url(#clip0_684_135)">
<path d="M336.715 146.307L353.867 176.016L116.215 313.212L99.0626 283.503L336.715 146.307Z" stroke="#A6916E" stroke-width="2" stroke-linecap="round" stroke-linejoin="round"/>
<path d="M336.715 146.3L372.934 140.953C373.799 140.826 374.682 140.963 375.467 141.348C376.252 141.732 376.903 142.344 377.333 143.105C377.763 143.866 377.954 144.739 377.879 145.61C377.804 146.48 377.467 147.308 376.913 147.984L353.861 176.007M222.997 251.568L240.142 281.275L121.316 349.873L104.171 320.166L222.997 251.568ZM222.997 251.568L259.218 246.213C260.084 246.085 260.968 246.222 261.754 246.607C262.541 246.991 263.192 247.605 263.623 248.367C264.053 249.129 264.243 250.004 264.166 250.876C264.09 251.748 263.751 252.576 263.194 253.252L240.144 281.268M188.699 192.151L205.844 221.858M188.699 192.151L69.8747 260.742L87.02 290.449L205.844 221.858M188.699 192.151L224.91 186.802C225.776 186.673 226.661 186.809 227.448 187.192C228.234 187.576 228.886 188.189 229.318 188.95C229.75 189.712 229.94 190.586 229.865 191.458C229.79 192.33 229.452 193.159 228.896 193.835L205.844 221.858M75.9256 271.244L49.3621 278.045L61.7911 299.573L80.9632 279.969" stroke="#A6916E" stroke-width="2" stroke-linecap="round" stroke-linejoin="round"/>
<path d="M110.225 330.653L83.662 337.455L96.0963 358.992L115.268 339.388M105.619 294.862L79.784 302.936L89.753 320.192L109.661 301.863" stroke="#A6916E" stroke-width="2" stroke-linecap="round" stroke-linejoin="round"/>
</g>
<defs>
<clipPath id="clip0_684_135">
<rect width="367.307" height="367.307" fill="white" transform="translate(95.0664 0.537109) rotate(15)"/>
</clipPath>
</defs>
</svg>
