<svg width="1733" height="349" viewBox="0 0 1733 349" fill="none" xmlns="http://www.w3.org/2000/svg">
<path d="M691.58 348.718L695.414 349L1733 349L1733 329.259L1706.71 329.259L1706.71 347.071L706.3 347.071L26.2865 297.113L26.2865 270.17L1.40105e-05 270.17L1.52233e-05 297.916L691.58 348.718ZM3.83323 50.8097L4.4343e-06 51.0913L5.6471e-06 78.8369L26.2865 78.8369L26.2865 51.8868L706.3 1.9291L1706.71 1.92906L1706.71 19.7409L1733 19.7409L1733 -3.43593e-06L695.414 4.19184e-05L3.83323 50.8097Z" fill="#7A8A99"/>
<path d="M975 7.83629L975 8.8012L705.286 8.80121L110.699 56.3062L102.139 55.621L700.28 7.8363L975 7.83629Z" fill="#C2DAF2"/>
<path d="M974.996 339.561L974.996 340.526L700.274 340.526L102.141 292.744L110.702 292.062L705.281 339.561L974.996 339.561Z" fill="#C2DAF2"/>
</svg>
