<svg width="21" height="23" viewBox="0 0 21 23" fill="none" xmlns="http://www.w3.org/2000/svg">
<g clip-path="url(#clip0_759_755)">
<path fill-rule="evenodd" clip-rule="evenodd" d="M7.79807 1.30471C6.43793 2.01323 5.32514 2.61278 5.32538 2.63717C5.32599 2.70011 8.58975 4.35301 8.7056 4.34898C8.75829 4.34721 9.14056 4.17125 9.55504 3.95799L10.3088 3.57032L11.1319 3.99344L11.955 4.41663L13.303 3.81091C15.3342 2.89819 15.5451 2.79818 15.5121 2.76457C15.4682 2.71999 14.7397 2.32861 12.7631 1.28801C11.8078 0.785078 10.8807 0.291969 10.7027 0.192188C10.5247 0.0924072 10.3548 0.0121403 10.3251 0.0136941C10.2955 0.0152478 9.15823 0.596209 7.79807 1.30471ZM1.83251 4.39388L0.416617 5.12523V8.33502C0.416617 10.1004 0.435209 11.5448 0.458014 11.5448C0.480741 11.5448 1.17736 11.2428 2.00602 10.8737L3.51269 10.2027V6.81934L4.24894 7.22047C4.81629 7.52929 5.38398 7.83748 5.95201 8.14504L6.91879 8.66849L7.34899 8.47395C7.61879 8.35176 7.88805 8.22837 8.15677 8.1038C8.36441 8.0071 8.87414 7.77752 9.28946 7.59352C9.70478 7.40944 10.0892 7.22434 10.1437 7.18215C10.2162 7.12611 9.33312 6.63814 6.87763 5.3772C5.02672 4.42672 3.45296 3.65207 3.38038 3.65578C3.30781 3.65949 2.61126 3.99159 1.83251 4.39388ZM15.7672 4.59926C14.8029 5.03459 14.0133 5.40817 14.0124 5.42947C14.0115 5.45075 14.5371 5.76326 15.1804 6.12383C15.8237 6.48448 16.35 6.79883 16.35 6.8225C16.35 6.84613 15.7808 7.12193 15.0851 7.43551C14.3894 7.74902 12.6309 8.54316 11.1773 9.20028L6.30668 11.4019C5.08147 11.9557 3.97709 12.455 3.85251 12.5114C1.34996 13.6443 0.662105 13.9586 0.567644 14.0126C0.472656 14.0669 0.451141 14.3825 0.434235 15.9666L0.414062 17.8559L1.68022 18.5011L2.94634 19.1462L4.70202 18.3538C5.66768 17.9181 6.4577 17.5387 6.4577 17.5108C6.4577 17.4829 6.27926 17.3666 6.06127 17.2523C5.84317 17.138 5.39296 16.8848 5.0607 16.6897C4.72846 16.4945 4.39718 16.3155 4.32444 16.2917C4.25173 16.2681 4.1933 16.2266 4.19448 16.1996C4.19569 16.1727 4.96882 15.8054 5.91243 15.3835C7.74521 14.564 9.14781 13.9325 12.159 12.5708C13.5055 11.962 14.8521 11.3536 16.1989 10.7455C17.3826 10.2113 18.7588 9.58726 19.2573 9.35889L20.1634 8.94368L20.1836 7.03284L20.2038 5.12207L18.9196 4.46293C18.2133 4.10043 17.6095 3.80473 17.5779 3.80581C17.5463 3.80681 16.7315 4.16382 15.7672 4.59926ZM19.8194 11.4928C19.6301 11.5853 19.2563 11.7583 18.9887 11.8774C18.7211 11.9965 18.2133 12.2256 17.8602 12.3867L17.2184 12.6794L17.2037 14.357C17.1956 15.2796 17.1617 16.0304 17.1282 16.0255C17.0523 16.0142 15.8493 15.3973 14.64 14.7493C13.7672 14.2817 13.7124 14.2631 13.5073 14.3646C13.3887 14.4234 12.68 14.7412 11.9324 15.0711C11.1848 15.4008 10.5488 15.6922 10.5189 15.7186C10.4891 15.7449 11.9937 16.5604 13.8626 17.5309L17.2605 19.2954L18.712 18.5445C19.5102 18.1316 20.189 17.7549 20.2203 17.7075C20.2906 17.601 20.2846 11.3102 20.2142 11.3187C20.1863 11.322 20.0086 11.4004 19.8194 11.4928ZM11.7814 18.8767C11.5296 18.985 11.2779 19.0934 11.0263 19.2019C10.2664 19.5307 10.4153 19.5416 9.51125 19.0915C8.90911 18.7918 8.64956 18.6993 8.5369 18.7442C8.4524 18.7779 7.72512 19.1051 6.92061 19.4713C6.11615 19.8375 5.43003 20.1372 5.39591 20.1372C5.05838 20.1372 5.61951 20.4724 7.78479 21.5647L10.3242 22.8455L11.3926 22.318C11.9802 22.0279 13.1655 21.4469 14.0266 21.027C14.8876 20.607 15.5814 20.2524 15.5684 20.2391C15.5553 20.2257 14.8339 19.8553 13.9651 19.4158L12.3855 18.6169L11.7814 18.8767Z" fill="black"/>
</g>
<defs>
<clipPath id="clip0_759_755">
<rect width="19.8766" height="22.8571" fill="white" transform="translate(0.414062)"/>
</clipPath>
</defs>
</svg>
