<svg width="24" height="24" viewBox="0 0 24 24" fill="none" xmlns="http://www.w3.org/2000/svg">
<g clip-path="url(#clip0_759_751)">
<path d="M4.86622 11.1482C4.8662 11.0174 4.892 10.8879 4.94215 10.7672C4.9923 10.6464 5.0658 10.5368 5.15843 10.4445C5.25107 10.3522 5.36101 10.2792 5.48195 10.2296C5.60288 10.18 5.73243 10.1547 5.86314 10.1553L7.51593 10.1608C7.77947 10.1608 8.0322 10.2655 8.21855 10.4519C8.4049 10.6383 8.50958 10.8911 8.50958 11.1548V17.4068C8.69577 17.3516 8.93456 17.2928 9.19614 17.2314C9.37777 17.1886 9.53964 17.0857 9.6555 16.9394C9.77136 16.7931 9.83443 16.612 9.83448 16.4253V8.6702C9.83447 8.53964 9.86017 8.41036 9.9101 8.28974C9.96003 8.16912 10.0332 8.05952 10.1255 7.96719C10.2178 7.87487 10.3273 7.80163 10.4479 7.75166C10.5685 7.70169 10.6977 7.67596 10.8282 7.67595H12.4843C12.7478 7.67599 13.0005 7.78073 13.1868 7.96714C13.3732 8.15354 13.4779 8.40634 13.4779 8.66996V15.868C13.4779 15.868 13.8924 15.7001 14.2964 15.5295C14.4464 15.466 14.5744 15.3598 14.6645 15.224C14.7545 15.0882 14.8026 14.9289 14.8027 14.7659V6.18475C14.8027 6.05422 14.8284 5.92496 14.8784 5.80436C14.9283 5.68376 15.0015 5.57419 15.0937 5.48188C15.186 5.38958 15.2955 5.31636 15.4161 5.26641C15.5366 5.21645 15.6658 5.19074 15.7963 5.19074H17.4524C17.7159 5.19074 17.9687 5.29546 18.155 5.48187C18.3414 5.66828 18.4461 5.92111 18.4461 6.18475V13.2509C19.8819 12.21 21.337 10.958 22.4917 9.45259C22.6593 9.23407 22.7701 8.97747 22.8144 8.70567C22.8587 8.43387 22.8351 8.15533 22.7456 7.89489C21.9643 5.61708 20.4987 3.63628 18.5493 2.22332C16.5999 0.810371 14.2618 0.0342431 11.8547 0.00106136C5.3638 -0.0861642 -0.000581456 5.21426 5.61646e-05 11.7083C-0.00631711 13.7632 0.52982 15.7833 1.55426 17.5645C1.69553 17.8081 1.90338 18.0063 2.15337 18.1359C2.40336 18.2654 2.68512 18.3209 2.96555 18.2959C3.27886 18.2683 3.66893 18.2293 4.13264 18.1748C4.33447 18.1519 4.5208 18.0554 4.65615 17.9039C4.7915 17.7524 4.86641 17.5563 4.86662 17.3531V11.1482" fill="black"/>
<path d="M4.83211 21.1748C6.57775 22.4451 8.64067 23.2077 10.7926 23.378C12.9446 23.5483 15.1017 23.1198 17.0253 22.1399C18.949 21.1599 20.5641 19.6668 21.6921 17.8256C22.82 15.9844 23.4169 13.8669 23.4165 11.7075C23.4165 11.4379 23.404 11.1714 23.386 10.9062C19.1106 17.2847 11.2165 20.2666 4.83203 21.175" fill="black"/>
</g>
<defs>
<clipPath id="clip0_759_751">
<rect width="23.4146" height="23.4146" fill="white"/>
</clipPath>
</defs>
</svg>
