<svg width="29" height="28" viewBox="0 0 29 28" fill="none" xmlns="http://www.w3.org/2000/svg">
<path d="M9.23151 2.33398H19.0315C22.7648 2.33398 25.7982 5.36732 25.7982 9.10065V18.9007C25.7982 20.6953 25.0853 22.4164 23.8163 23.6854C22.5473 24.9544 20.8261 25.6673 19.0315 25.6673H9.23151C5.49818 25.6673 2.46484 22.634 2.46484 18.9007V9.10065C2.46484 7.30602 3.17776 5.58489 4.44675 4.3159C5.71575 3.0469 7.43688 2.33398 9.23151 2.33398ZM8.99818 4.66732C7.88427 4.66732 6.81598 5.10982 6.02833 5.89747C5.24068 6.68512 4.79818 7.75341 4.79818 8.86732V19.134C4.79818 21.4557 6.67651 23.334 8.99818 23.334H19.2648C20.3788 23.334 21.447 22.8915 22.2347 22.1038C23.0223 21.3162 23.4648 20.2479 23.4648 19.134V8.86732C23.4648 6.54565 21.5865 4.66732 19.2648 4.66732H8.99818ZM20.2565 6.41732C20.6433 6.41732 21.0142 6.57096 21.2877 6.84445C21.5612 7.11794 21.7148 7.48888 21.7148 7.87565C21.7148 8.26243 21.5612 8.63336 21.2877 8.90685C21.0142 9.18034 20.6433 9.33398 20.2565 9.33398C19.8697 9.33398 19.4988 9.18034 19.2253 8.90685C18.9518 8.63336 18.7982 8.26243 18.7982 7.87565C18.7982 7.48888 18.9518 7.11794 19.2253 6.84445C19.4988 6.57096 19.8697 6.41732 20.2565 6.41732ZM14.1315 8.16732C15.6786 8.16732 17.1623 8.7819 18.2563 9.87586C19.3503 10.9698 19.9648 12.4536 19.9648 14.0007C19.9648 15.5477 19.3503 17.0315 18.2563 18.1254C17.1623 19.2194 15.6786 19.834 14.1315 19.834C12.5844 19.834 11.1007 19.2194 10.0067 18.1254C8.91276 17.0315 8.29818 15.5477 8.29818 14.0007C8.29818 12.4536 8.91276 10.9698 10.0067 9.87586C11.1007 8.7819 12.5844 8.16732 14.1315 8.16732ZM14.1315 10.5007C13.2033 10.5007 12.313 10.8694 11.6566 11.5258C11.0003 12.1822 10.6315 13.0724 10.6315 14.0007C10.6315 14.9289 11.0003 15.8191 11.6566 16.4755C12.313 17.1319 13.2033 17.5007 14.1315 17.5007C15.0598 17.5007 15.95 17.1319 16.6064 16.4755C17.2628 15.8191 17.6315 14.9289 17.6315 14.0007C17.6315 13.0724 17.2628 12.1822 16.6064 11.5258C15.95 10.8694 15.0598 10.5007 14.1315 10.5007Z" fill="black"/>
</svg>
