<svg width="24" height="23" viewBox="0 0 24 23" fill="none" xmlns="http://www.w3.org/2000/svg">
<g clip-path="url(#clip0_759_747)">
<path d="M23.1239 2.41027C23.1457 2.27941 23.1329 2.14513 23.0868 2.02072C23.0407 1.89632 22.963 1.7861 22.8612 1.70097C22.7595 1.61585 22.6372 1.55877 22.5067 1.53537C22.3761 1.51198 22.2416 1.52309 22.1167 1.56761L0.783342 9.18665C0.642721 9.2368 0.519931 9.32715 0.430224 9.44649C0.340518 9.56583 0.287848 9.70889 0.278758 9.85791C0.269667 10.0069 0.304557 10.1553 0.379093 10.2847C0.453629 10.414 0.564526 10.5186 0.698008 10.5855L6.79325 13.6331C6.91337 13.6933 7.04725 13.7206 7.18132 13.7123C7.31539 13.704 7.44488 13.6604 7.55667 13.5859L12.6157 10.2122L9.58791 14.0004C9.52202 14.0828 9.47398 14.1781 9.44684 14.2801C9.41969 14.3821 9.41403 14.4886 9.43022 14.5929C9.44641 14.6972 9.48409 14.797 9.54088 14.8859C9.59767 14.9749 9.67232 15.0511 9.7601 15.1097L18.903 21.2049C19.0088 21.2753 19.1306 21.3181 19.2573 21.3294C19.3839 21.3406 19.5114 21.32 19.628 21.2695C19.7446 21.2189 19.8468 21.1399 19.9251 21.0397C20.0034 20.9396 20.0553 20.8214 20.0763 20.696L23.1239 2.41027Z" fill="black"/>
</g>
<defs>
<clipPath id="clip0_759_747">
<rect width="22.8571" height="22.8571" fill="white" transform="translate(0.277344)"/>
</clipPath>
</defs>
</svg>
