<svg width="29" height="28" viewBox="0 0 29 28" fill="none" xmlns="http://www.w3.org/2000/svg">
<path d="M19.6422 6.79C18.8447 5.87956 18.4052 4.71034 18.4056 3.5H14.8006V17.9667C14.7728 18.7495 14.4423 19.4911 13.8786 20.0351C13.315 20.5791 12.5623 20.8832 11.7789 20.8833C10.1222 20.8833 8.74557 19.53 8.74557 17.85C8.74557 15.8433 10.6822 14.3383 12.6772 14.9567V11.27C8.65224 10.7333 5.12891 13.86 5.12891 17.85C5.12891 21.735 8.34891 24.5 11.7672 24.5C15.4306 24.5 18.4056 21.525 18.4056 17.85V10.5117C19.8674 11.5615 21.6225 12.1248 23.4222 12.1217V8.51667C23.4222 8.51667 21.2289 8.62167 19.6422 6.79Z" fill="black"/>
</svg>
