<svg width="24" height="24" viewBox="0 0 24 24" fill="none" xmlns="http://www.w3.org/2000/svg">
<g clip-path="url(#clip0_759_745)">
<path d="M23.3592 4.8158C22.5446 5.17678 21.6695 5.42068 20.7495 5.53092C21.6987 4.96292 22.4089 4.06894 22.7475 3.0158C21.8557 3.54555 20.8796 3.91843 19.8617 4.11824C19.1772 3.38738 18.2705 2.90295 17.2825 2.74017C16.2944 2.57739 15.2803 2.74536 14.3975 3.218C13.5147 3.69065 12.8127 4.44152 12.4004 5.35405C11.988 6.26658 11.8885 7.28971 12.1173 8.26458C10.3101 8.17385 8.54228 7.70414 6.92842 6.88595C5.31456 6.06776 3.89078 4.91937 2.74947 3.51532C2.35923 4.18849 2.13484 4.96897 2.13484 5.80019C2.1344 6.54848 2.31867 7.28531 2.6713 7.9453C3.02393 8.60529 3.53402 9.16804 4.1563 9.58361C3.43462 9.56064 2.72886 9.36564 2.09776 9.01483V9.07336C2.09769 10.1229 2.46072 11.1401 3.12526 11.9524C3.7898 12.7647 4.71491 13.3221 5.74362 13.5299C5.07414 13.7111 4.37224 13.7378 3.69093 13.608C3.98117 14.511 4.54654 15.3007 5.30788 15.8665C6.06922 16.4322 6.98841 16.7457 7.93679 16.7631C6.32687 18.0269 4.33863 18.7125 2.29191 18.7095C1.92935 18.7096 1.56711 18.6884 1.20703 18.646C3.28457 19.9818 5.70297 20.6907 8.17288 20.688C16.5339 20.688 21.1046 13.7631 21.1046 7.75727C21.1046 7.56214 21.0997 7.36507 21.0909 7.16995C21.98 6.527 22.7474 5.73082 23.3573 4.81873L23.3592 4.8158V4.8158Z" fill="black"/>
</g>
<defs>
<clipPath id="clip0_759_745">
<rect width="23.4146" height="23.4146" fill="white" transform="translate(0.292969)"/>
</clipPath>
</defs>
</svg>
