<svg width="30" height="29" viewBox="0 0 30 29" fill="none" xmlns="http://www.w3.org/2000/svg">
<path d="M12.6137 17.8579L18.7922 14.2865L12.6137 10.715V17.8579ZM26.3756 8.53646C26.5303 9.09598 26.6375 9.84598 26.7089 10.7984C26.7922 11.7507 26.8279 12.5722 26.8279 13.2865L26.8994 14.2865C26.8994 16.8936 26.7089 18.8103 26.3756 20.0365C26.0779 21.1079 25.3875 21.7984 24.316 22.096C23.7565 22.2507 22.7327 22.3579 21.1613 22.4293C19.6137 22.5126 18.197 22.5484 16.8875 22.5484L14.9946 22.6198C10.0065 22.6198 6.89937 22.4293 5.67318 22.096C4.60175 21.7984 3.91127 21.1079 3.61365 20.0365C3.45889 19.4769 3.35175 18.7269 3.28032 17.7746C3.19699 16.8222 3.16127 16.0007 3.16127 15.2865L3.08984 14.2865C3.08984 11.6793 3.28032 9.76265 3.61365 8.53646C3.91127 7.46503 4.60175 6.77455 5.67318 6.47693C6.2327 6.32217 7.25651 6.21503 8.82794 6.1436C10.3756 6.06027 11.7922 6.02455 13.1017 6.02455L14.9946 5.95312C19.9827 5.95312 23.0898 6.1436 24.316 6.47693C25.3875 6.77455 26.0779 7.46503 26.3756 8.53646Z" fill="black"/>
</svg>
